<?xml version="1.0" encoding="UTF-8"?>
<!--
  NY&E Northern Lights Subdivision — Track Schematic
  Schematic representation — not to scale.
  Station mileposts (from timetable.json, synced 2026-06-14 from XTrkCAD, 1 MP = 12 layout inches):
    WP=0  XP=45.1(exit 53.1, siding 15 cars)  BB=61.7(switchback, exit 64.7, siding 6 cars)
    JC=85.8(NOT a switchback — passing siding 16 cars, exit 94.1)  MC=102.4(switchback, exit 109.9, siding 11 cars)
    SK=166.6(switchback, exit 170.3, siding 7 cars)  HC=208.1(terminus, service 7 cars)
  Industries: KIEL=5.2(6), OHARAS_LF=6.6(6), OHARAS_CS=6.6(6) (near WP)
              QM1=55.9(2) (within XP limits)
              DAVIS_LF=88.3(13), DAVIS_CT1=89.9(3), DAVIS_CT2=90.5(3) (within JC limits)
              TIMBER=108.6(16), QM2=104.7(1) (within MC limits)  QM3 ELIMINATED.
-->
<svg xmlns="http://www.w3.org/2000/svg" viewBox="0 0 950 380" width="950" height="380">
  <defs>
    <style>text { font-family: Arial, Helvetica, sans-serif; }</style>
  </defs>

  <!-- Background -->
  <rect width="950" height="380" fill="#fafaf8"/>

  <!-- Title -->
  <text x="475" y="20" text-anchor="middle" font-size="13" font-weight="bold" fill="#111">
    NY&amp;E Northern Lights Subdivision — Track Schematic
  </text>
  <text x="475" y="34" text-anchor="middle" font-size="9" fill="#666" font-style="italic">
    WP (Williamsport) to HC (Hemlock Crest) · Point-to-point single main track · Southward trains superior by direction · Schematic — not to scale
  </text>

  <!-- ============================================================ -->
  <!-- C&O MAINLINE (upper level — separate from NY&E)             -->
  <!-- Shown as single line above NY&E, connected only at INTX      -->
  <!-- ============================================================ -->

  <!-- C&O mainline track -->
  <line x1="12" y1="80" x2="200" y2="80" stroke="#8b0000" stroke-width="2.5"/>
  <!-- West staging label -->
  <text x="8" y="77" text-anchor="start" font-size="8" fill="#8b0000" font-weight="bold">West</text>
  <text x="8" y="87" text-anchor="start" font-size="7" fill="#8b0000">(Covington WV)</text>
  <!-- East staging label -->
  <text x="204" y="77" text-anchor="start" font-size="8" fill="#8b0000" font-weight="bold">East</text>
  <text x="204" y="87" text-anchor="start" font-size="7" fill="#8b0000">(Cumberland MD)</text>
  <!-- C&O label on track -->
  <text x="106" y="75" text-anchor="middle" font-size="8" fill="#8b0000" font-style="italic">C&amp;O mainline (upper level)</text>

  <!-- INTX connection — vertical line from C&O down to WP yard -->
  <line x1="100" y1="80" x2="100" y2="148" stroke="#8b0000" stroke-width="2" stroke-dasharray="4,2"/>
  <text x="103" y="120" font-size="7" fill="#8b0000">INTX</text>

  <!-- ============================================================ -->
  <!-- NY&E MAIN LINE                                               -->
  <!-- Main track at y=200. Sidings above at y=183                  -->
  <!-- Station x positions (proportional, adjusted for readability): -->
  <!--   WP=68  XP=265/315  BB=397  JC=512  MC=652  SK=722  HC=880 -->
  <!-- ============================================================ -->

  <!-- Main track — through sections between stations -->
  <line x1="148" y1="200" x2="245" y2="200" stroke="#222" stroke-width="3"/>
  <line x1="315" y1="200" x2="380" y2="200" stroke="#222" stroke-width="3"/>
  <line x1="415" y1="200" x2="495" y2="200" stroke="#222" stroke-width="3"/>
  <line x1="530" y1="200" x2="635" y2="200" stroke="#222" stroke-width="3"/>
  <line x1="670" y1="200" x2="705" y2="200" stroke="#222" stroke-width="3"/>
  <line x1="740" y1="200" x2="862" y2="200" stroke="#222" stroke-width="3"/>

  <!-- North arrow -->
  <text x="900" y="56" text-anchor="middle" font-size="10" font-weight="bold" fill="#333">N</text>
  <line x1="900" y1="60" x2="900" y2="48" stroke="#333" stroke-width="2"/>
  <polygon points="896,60 900,68 904,60" fill="#333"/>
  <text x="900" y="78" text-anchor="middle" font-size="8" fill="#555">(HC)</text>

  <!-- ============================================================ -->
  <!-- WP — Williamsport Yard (South end / C&O Junction)           -->
  <!-- MP 0 switch: freight yard (south) / passenger yard (north)  -->
  <!-- Yard limits mp 0–2                                           -->
  <!-- ============================================================ -->

  <!-- WP Yard area -->
  <rect x="12" y="180" width="138" height="40" rx="2" fill="#e8e8e8" stroke="#aaa" stroke-width="1"/>

  <!-- Passenger yard (north half of WP) — above main track -->
  <line x1="15" y1="187" x2="148" y2="187" stroke="#555" stroke-width="1.5"/>
  <line x1="15" y1="193" x2="148" y2="193" stroke="#555" stroke-width="1.5"/>
  <!-- Main track (through yard) -->
  <line x1="15" y1="200" x2="148" y2="200" stroke="#333" stroke-width="3"/>
  <!-- Freight yard (south half of WP) — below main track -->
  <line x1="15" y1="207" x2="148" y2="207" stroke="#555" stroke-width="1.5"/>
  <line x1="15" y1="213" x2="148" y2="213" stroke="#555" stroke-width="1.5"/>

  <!-- Block signal at WP exit (MP 0) — just outside WP yard box -->
  <polygon points="155,196 160,200 155,204 150,200" fill="none" stroke="#333" stroke-width="1.5"/>

  <!-- Yard limit at MP 2 — between WP and XP -->
  <line x1="175" y1="178" x2="175" y2="222" stroke="#888" stroke-width="1" stroke-dasharray="3,2"/>
  <text x="175" y="176" text-anchor="middle" font-size="6.5" fill="#888">YL</text>

  <!-- Yard labels -->
  <text x="75" y="168" text-anchor="middle" font-size="11" font-weight="bold" fill="#111">WP</text>
  <text x="75" y="179" text-anchor="middle" font-size="8.5" fill="#444">Williamsport</text>
  <text x="75" y="238" text-anchor="middle" font-size="7.5" fill="#1b5e20">▸ Clearance point</text>
  <text x="75" y="249" text-anchor="middle" font-size="7" fill="#888">Yard limits</text>

  <!-- WP Register · CYD badge -->
  <rect x="18" y="183" width="55" height="17" rx="2" fill="#1a237e"/>
  <text x="45" y="195" text-anchor="middle" font-size="7.5" fill="white">Register · CYD</text>

  <!-- Industries near WP — Kiel Co, O'Haras LF, O'Haras CS -->
  <line x1="162" y1="200" x2="162" y2="240" stroke="#555" stroke-width="1.5"/>
  <line x1="147" y1="240" x2="177" y2="240" stroke="#555" stroke-width="1.5"/>
  <text x="162" y="251" text-anchor="middle" font-size="7" fill="#666">Kiel Co (6)</text>
  <text x="162" y="261" text-anchor="middle" font-size="7" fill="#666">O'Haras Lumber &amp; Feed (6)</text>
  <text x="162" y="271" text-anchor="middle" font-size="7" fill="#666">O'Haras Coal Service (6)</text>

  <!-- ============================================================ -->
  <!-- XP — Xina Pass (Register Station · long station limits)      -->
  <!-- Block signal at south switch. Entry mp 542 — exit mp 637, 15 cars -->
  <!-- ============================================================ -->

  <line x1="245" y1="183" x2="315" y2="183" stroke="#555" stroke-width="1.5"/>
  <line x1="245" y1="200" x2="315" y2="200" stroke="#222" stroke-width="3"/>
  <line x1="245" y1="183" x2="245" y2="200" stroke="#555" stroke-width="1.5"/>
  <line x1="315" y1="183" x2="315" y2="200" stroke="#555" stroke-width="1.5"/>

  <!-- Block signal at XP south switch — just outside XP area, other end of WP–XP block -->
  <polygon points="238,196 243,200 238,204 233,200" fill="none" stroke="#333" stroke-width="1.5"/>

  <!-- Bracket connecting the two block signals to show a single block section -->
  <line x1="155" y1="182" x2="155" y2="179" stroke="#888" stroke-width="0.8"/>
  <line x1="155" y1="179" x2="238" y2="179" stroke="#888" stroke-width="0.8"/>
  <line x1="238" y1="179" x2="238" y2="182" stroke="#888" stroke-width="0.8"/>
  <text x="196" y="177" text-anchor="middle" font-size="6.5" fill="#888">Block</text>

  <!-- TO signals at XP -->
  <line x1="256" y1="183" x2="256" y2="167" stroke="#333" stroke-width="1.5"/>
  <circle cx="256" cy="164" r="5" fill="none" stroke="#333" stroke-width="1.5"/>
  <circle cx="256" cy="164" r="2" fill="#333"/>
  <line x1="304" y1="183" x2="304" y2="167" stroke="#333" stroke-width="1.5"/>
  <circle cx="304" cy="164" r="5" fill="none" stroke="#333" stroke-width="1.5"/>
  <circle cx="304" cy="164" r="2" fill="#333"/>

  <text x="280" y="140" text-anchor="middle" font-size="11" font-weight="bold" fill="#111">XP</text>
  <text x="280" y="152" text-anchor="middle" font-size="8.5" fill="#444">Xina Pass</text>
  <rect x="257" y="183" width="46" height="17" rx="2" fill="#1a237e"/>
  <text x="280" y="195" text-anchor="middle" font-size="7.5" fill="white">Register · CYD</text>


  <!-- ============================================================ -->
  <!-- Quilly Mine 1 — spur within XP limits                       -->
  <!-- ============================================================ -->
  <line x1="368" y1="200" x2="368" y2="240" stroke="#555" stroke-width="1.5"/>
  <line x1="353" y1="240" x2="383" y2="240" stroke="#555" stroke-width="1.5"/>
  <text x="368" y="251" text-anchor="middle" font-size="7" fill="#666">Quilly Mine 1 (2)</text>

  <!-- ============================================================ -->
  <!-- BB — Becs Bend (Switchback)                                  -->
  <!-- ============================================================ -->

  <line x1="380" y1="183" x2="415" y2="183" stroke="#555" stroke-width="1.5"/>
  <line x1="380" y1="200" x2="415" y2="200" stroke="#222" stroke-width="3"/>
  <line x1="380" y1="183" x2="380" y2="200" stroke="#555" stroke-width="1.5"/>
  <line x1="415" y1="183" x2="415" y2="200" stroke="#555" stroke-width="1.5"/>

  <line x1="388" y1="183" x2="388" y2="167" stroke="#333" stroke-width="1.5"/>
  <circle cx="388" cy="164" r="5" fill="none" stroke="#333" stroke-width="1.5"/>
  <circle cx="388" cy="164" r="2" fill="#333"/>
  <line x1="407" y1="183" x2="407" y2="167" stroke="#333" stroke-width="1.5"/>
  <circle cx="407" cy="164" r="5" fill="none" stroke="#333" stroke-width="1.5"/>
  <circle cx="407" cy="164" r="2" fill="#333"/>

  <text x="397" y="140" text-anchor="middle" font-size="11" font-weight="bold" fill="#111">BB</text>
  <text x="397" y="152" text-anchor="middle" font-size="8.5" fill="#444">Becs Bend</text>
  <rect x="374" y="183" width="44" height="17" rx="2" fill="#2e7d32"/>
  <text x="397" y="195" text-anchor="middle" font-size="7.5" fill="white">CYD</text>

  <!-- BB Switchback symbol -->
  <line x1="397" y1="200" x2="397" y2="235" stroke="#8b0000" stroke-width="2"/>
  <line x1="387" y1="235" x2="407" y2="235" stroke="#8b0000" stroke-width="2"/>
  <polygon points="393,231 387,235 393,239" fill="#8b0000"/>

  <!-- ============================================================ -->
  <!-- JC — Jacks Creek (NOT a switchback — passing siding 16 cars) -->
  <!-- ============================================================ -->

  <line x1="495" y1="183" x2="530" y2="183" stroke="#555" stroke-width="1.5"/>
  <line x1="495" y1="200" x2="530" y2="200" stroke="#222" stroke-width="3"/>
  <line x1="495" y1="183" x2="495" y2="200" stroke="#555" stroke-width="1.5"/>
  <line x1="530" y1="183" x2="530" y2="200" stroke="#555" stroke-width="1.5"/>

  <line x1="503" y1="183" x2="503" y2="167" stroke="#333" stroke-width="1.5"/>
  <circle cx="503" cy="164" r="5" fill="none" stroke="#333" stroke-width="1.5"/>
  <circle cx="503" cy="164" r="2" fill="#333"/>
  <line x1="522" y1="183" x2="522" y2="167" stroke="#333" stroke-width="1.5"/>
  <circle cx="522" cy="164" r="5" fill="none" stroke="#333" stroke-width="1.5"/>
  <circle cx="522" cy="164" r="2" fill="#333"/>

  <text x="512" y="140" text-anchor="middle" font-size="11" font-weight="bold" fill="#111">JC</text>
  <text x="512" y="152" text-anchor="middle" font-size="8.5" fill="#444">Jacks Creek</text>
  <rect x="489" y="183" width="44" height="17" rx="2" fill="#2e7d32"/>
  <text x="512" y="195" text-anchor="middle" font-size="7.5" fill="white">CYD</text>

  <!-- Industries at JC — Davis Lumber, Davis Coal Track 1 & 2 -->
  <line x1="512" y1="200" x2="512" y2="240" stroke="#555" stroke-width="1.5"/>
  <line x1="498" y1="240" x2="526" y2="240" stroke="#555" stroke-width="1.5"/>
  <text x="512" y="251" text-anchor="middle" font-size="7" fill="#666">Davis Lumber (13)</text>
  <text x="512" y="261" text-anchor="middle" font-size="7" fill="#666">Davis Coal Track 1 (3)</text>
  <text x="512" y="271" text-anchor="middle" font-size="7" fill="#666">Davis Coal Track 2 (3)</text>

  <!-- ============================================================ -->
  <!-- MC — Michelles Cove (Switchback — two-switch geometry, exit TBD) -->
  <!-- ============================================================ -->

  <line x1="635" y1="183" x2="670" y2="183" stroke="#555" stroke-width="1.5"/>
  <line x1="635" y1="200" x2="670" y2="200" stroke="#222" stroke-width="3"/>
  <line x1="635" y1="183" x2="635" y2="200" stroke="#555" stroke-width="1.5"/>
  <line x1="670" y1="183" x2="670" y2="200" stroke="#555" stroke-width="1.5"/>

  <line x1="643" y1="183" x2="643" y2="167" stroke="#333" stroke-width="1.5"/>
  <circle cx="643" cy="164" r="5" fill="none" stroke="#333" stroke-width="1.5"/>
  <circle cx="643" cy="164" r="2" fill="#333"/>
  <line x1="662" y1="183" x2="662" y2="167" stroke="#333" stroke-width="1.5"/>
  <circle cx="662" cy="164" r="5" fill="none" stroke="#333" stroke-width="1.5"/>
  <circle cx="662" cy="164" r="2" fill="#333"/>

  <text x="652" y="140" text-anchor="middle" font-size="11" font-weight="bold" fill="#111">MC</text>
  <text x="652" y="152" text-anchor="middle" font-size="8.5" fill="#444">Michelles Cove</text>
  <rect x="628" y="183" width="48" height="17" rx="2" fill="#2e7d32"/>
  <text x="652" y="195" text-anchor="middle" font-size="7.5" fill="white">CYD</text>

  <!-- MC Switchback symbol -->
  <line x1="652" y1="200" x2="652" y2="235" stroke="#8b0000" stroke-width="2"/>
  <line x1="642" y1="235" x2="662" y2="235" stroke="#8b0000" stroke-width="2"/>
  <polygon points="648,231 642,235 648,239" fill="#8b0000"/>

  <!-- MC industries — combined spur (QM2 south switch area, Timber north end) -->
  <line x1="638" y1="200" x2="638" y2="238" stroke="#555" stroke-width="1.5"/>
  <line x1="624" y1="238" x2="652" y2="238" stroke="#555" stroke-width="1.5"/>
  <text x="638" y="249" text-anchor="middle" font-size="7" fill="#666">Quilly Mine 2 (1)</text>
  <text x="638" y="260" text-anchor="middle" font-size="7" fill="#666">Timber Ltd (16)</text>

  <!-- ============================================================ -->
  <!-- SK — Stans Knob (Switchback)                                -->
  <!-- ============================================================ -->

  <line x1="705" y1="183" x2="740" y2="183" stroke="#555" stroke-width="1.5"/>
  <line x1="705" y1="200" x2="740" y2="200" stroke="#222" stroke-width="3"/>
  <line x1="705" y1="183" x2="705" y2="200" stroke="#555" stroke-width="1.5"/>
  <line x1="740" y1="183" x2="740" y2="200" stroke="#555" stroke-width="1.5"/>

  <line x1="713" y1="183" x2="713" y2="167" stroke="#333" stroke-width="1.5"/>
  <circle cx="713" cy="164" r="5" fill="none" stroke="#333" stroke-width="1.5"/>
  <circle cx="713" cy="164" r="2" fill="#333"/>
  <line x1="732" y1="183" x2="732" y2="167" stroke="#333" stroke-width="1.5"/>
  <circle cx="732" cy="164" r="5" fill="none" stroke="#333" stroke-width="1.5"/>
  <circle cx="732" cy="164" r="2" fill="#333"/>

  <text x="722" y="140" text-anchor="middle" font-size="11" font-weight="bold" fill="#111">SK</text>
  <text x="722" y="152" text-anchor="middle" font-size="8.5" fill="#444">Stans Knob</text>
  <rect x="698" y="183" width="48" height="17" rx="2" fill="#2e7d32"/>
  <text x="722" y="195" text-anchor="middle" font-size="7.5" fill="white">CYD</text>

  <!-- SK Switchback symbol -->
  <line x1="722" y1="200" x2="722" y2="235" stroke="#8b0000" stroke-width="2"/>
  <line x1="712" y1="235" x2="732" y2="235" stroke="#8b0000" stroke-width="2"/>
  <polygon points="718,231 712,235 718,239" fill="#8b0000"/>

  <!-- ============================================================ -->
  <!-- Between SK and HC — no industries (QM3 eliminated; Timber within MC) -->

  <!-- ============================================================ -->
  <!-- HC — Hemlock Crest (North Terminus / Register Station)       -->
  <!-- ============================================================ -->

  <rect x="862" y="183" width="80" height="34" rx="2" fill="#e8e8e8" stroke="#aaa" stroke-width="1"/>
  <line x1="865" y1="189" x2="940" y2="189" stroke="#555" stroke-width="1.5"/>
  <line x1="865" y1="200" x2="940" y2="200" stroke="#333" stroke-width="3"/>
  <line x1="865" y1="210" x2="940" y2="210" stroke="#555" stroke-width="1.5"/>

  <text x="900" y="168" text-anchor="middle" font-size="11" font-weight="bold" fill="#111">HC</text>
  <text x="900" y="180" text-anchor="middle" font-size="8.5" fill="#444">Hemlock Crest</text>
  <rect x="876" y="183" width="48" height="17" rx="2" fill="#1a237e"/>
  <text x="900" y="195" text-anchor="middle" font-size="7.5" fill="white">Register · CYD</text>
  <text x="900" y="232" text-anchor="middle" font-size="7.5" fill="#666">North Terminus</text>
  <text x="900" y="243" text-anchor="middle" font-size="7.5" fill="#666">Register Station</text>
  <text x="900" y="254" text-anchor="middle" font-size="7.5" fill="#1b5e20">▸ Clearance point</text>

  <!-- ============================================================ -->
  <!-- Direction labels                                             -->
  <!-- ============================================================ -->
  <text x="12" y="200" text-anchor="start" font-size="9" fill="#888" transform="rotate(-90,12,200)">← South (WP)</text>
  <text x="942" y="200" text-anchor="end" font-size="9" fill="#888" transform="rotate(90,942,200)">North (HC) →</text>

  <text x="540" y="278" text-anchor="middle" font-size="8.5" fill="#555" font-style="italic">
    Southward trains are superior by direction. Single main track — all trains meet in sidings.
  </text>

  <!-- ============================================================ -->
  <!-- Legend                                                       -->
  <!-- ============================================================ -->
  <rect x="5" y="287" width="940" height="87" rx="4" fill="white" stroke="#ccc" stroke-width="1"/>
  <text x="475" y="301" text-anchor="middle" font-size="10" font-weight="bold" fill="#333">Legend</text>

  <!-- Row 1 -->
  <line x1="15" y1="315" x2="55" y2="315" stroke="#222" stroke-width="3"/>
  <text x="62" y="319" font-size="8.5" fill="#333">Main track</text>

  <line x1="140" y1="315" x2="180" y2="315" stroke="#555" stroke-width="1.5"/>
  <text x="187" y="319" font-size="8.5" fill="#333">Passing siding</text>

  <line x1="285" y1="315" x2="325" y2="315" stroke="#8b0000" stroke-width="2.5"/>
  <text x="332" y="319" font-size="8.5" fill="#333">C&amp;O mainline</text>

  <line x1="430" y1="315" x2="445" y2="315" stroke="#8b0000" stroke-width="2" stroke-dasharray="4,2"/>
  <text x="452" y="319" font-size="8.5" fill="#333">INTX connection</text>

  <!-- Industry spur (right-angle) -->
  <line x1="570" y1="310" x2="570" y2="320" stroke="#555" stroke-width="1.5"/>
  <line x1="570" y1="320" x2="590" y2="320" stroke="#555" stroke-width="1.5"/>
  <text x="597" y="319" font-size="8.5" fill="#333">Industry spur</text>

  <!-- Block signal diamond -->
  <polygon points="755,311 761,315 755,319 749,315" fill="none" stroke="#333" stroke-width="1.5"/>
  <text x="768" y="319" font-size="8.5" fill="#333">Block signal (BS)</text>

  <!-- Row 2 -->
  <line x1="15" y1="340" x2="15" y2="350" stroke="#333" stroke-width="1.5"/>
  <circle cx="15" cy="353" r="5" fill="none" stroke="#333" stroke-width="1.5"/>
  <circle cx="15" cy="353" r="2" fill="#333"/>
  <text x="27" y="355" font-size="8.5" fill="#333">TO signal (N+S pair per station)</text>

  <rect x="140" y="336" width="40" height="14" rx="2" fill="#2e7d32"/>
  <text x="160" y="347" text-anchor="middle" font-size="7.5" fill="white">CYD</text>
  <text x="187" y="348" font-size="8.5" fill="#333">ESP32 touchscreen panel</text>

  <rect x="285" y="336" width="55" height="14" rx="2" fill="#1a237e"/>
  <text x="312" y="347" text-anchor="middle" font-size="7.5" fill="white">Register · CYD</text>
  <text x="347" y="348" font-size="8.5" fill="#333">Register station (must OS)</text>

  <!-- Switchback symbol -->
  <line x1="500" y1="338" x2="500" y2="346" stroke="#8b0000" stroke-width="2"/>
  <line x1="495" y1="346" x2="505" y2="346" stroke="#8b0000" stroke-width="2"/>
  <polygon points="497,342 494,346 497,350" fill="#8b0000"/>
  <text x="512" y="349" font-size="8.5" fill="#8b0000">Station switchback — crew reverses direction</text>
</svg>
