<?xml version="1.0" encoding="UTF-8"?>
<svg xmlns="http://www.w3.org/2000/svg" width="767" height="1150" viewBox="0 0 767 1150">
<rect x="0.0" y="0.0" width="767.0" height="1150.0" fill="#ffffff" stroke="none" stroke-width="0" rx="0"/>
<rect x="54.0" y="86.0" width="607.5" height="68.0" fill="#eaf3fb" stroke="none" stroke-width="0" rx="0"/>
<rect x="54.0" y="86" width="607.5" height="68" fill="none" stroke="#aaccee" stroke-width="0.8"/>
<rect x="54.0" y="154.0" width="607.5" height="960.0" fill="#fafafa" stroke="#cccccc" stroke-width="0.5" rx="0"/>
<line x1="54.0" y1="154.0" x2="661.5" y2="154.0" stroke="#d0d0d0" stroke-width="0.9"/>
<line x1="54.0" y1="194.0" x2="661.5" y2="194.0" stroke="#f2f2f2" stroke-width="0.4"/>
<line x1="54.0" y1="234.0" x2="661.5" y2="234.0" stroke="#f2f2f2" stroke-width="0.4"/>
<line x1="54.0" y1="274.0" x2="661.5" y2="274.0" stroke="#e4e4e4" stroke-width="0.6"/>
<line x1="54.0" y1="314.0" x2="661.5" y2="314.0" stroke="#f2f2f2" stroke-width="0.4"/>
<line x1="54.0" y1="354.0" x2="661.5" y2="354.0" stroke="#f2f2f2" stroke-width="0.4"/>
<line x1="54.0" y1="394.0" x2="661.5" y2="394.0" stroke="#d0d0d0" stroke-width="0.9"/>
<line x1="54.0" y1="434.0" x2="661.5" y2="434.0" stroke="#f2f2f2" stroke-width="0.4"/>
<line x1="54.0" y1="474.0" x2="661.5" y2="474.0" stroke="#f2f2f2" stroke-width="0.4"/>
<line x1="54.0" y1="514.0" x2="661.5" y2="514.0" stroke="#e4e4e4" stroke-width="0.6"/>
<line x1="54.0" y1="554.0" x2="661.5" y2="554.0" stroke="#f2f2f2" stroke-width="0.4"/>
<line x1="54.0" y1="594.0" x2="661.5" y2="594.0" stroke="#f2f2f2" stroke-width="0.4"/>
<line x1="54.0" y1="634.0" x2="661.5" y2="634.0" stroke="#d0d0d0" stroke-width="0.9"/>
<line x1="54.0" y1="674.0" x2="661.5" y2="674.0" stroke="#f2f2f2" stroke-width="0.4"/>
<line x1="54.0" y1="714.0" x2="661.5" y2="714.0" stroke="#f2f2f2" stroke-width="0.4"/>
<line x1="54.0" y1="754.0" x2="661.5" y2="754.0" stroke="#e4e4e4" stroke-width="0.6"/>
<line x1="54.0" y1="794.0" x2="661.5" y2="794.0" stroke="#f2f2f2" stroke-width="0.4"/>
<line x1="54.0" y1="834.0" x2="661.5" y2="834.0" stroke="#f2f2f2" stroke-width="0.4"/>
<line x1="54.0" y1="874.0" x2="661.5" y2="874.0" stroke="#d0d0d0" stroke-width="0.9"/>
<line x1="54.0" y1="914.0" x2="661.5" y2="914.0" stroke="#f2f2f2" stroke-width="0.4"/>
<line x1="54.0" y1="954.0" x2="661.5" y2="954.0" stroke="#f2f2f2" stroke-width="0.4"/>
<line x1="54.0" y1="994.0" x2="661.5" y2="994.0" stroke="#e4e4e4" stroke-width="0.6"/>
<line x1="54.0" y1="1034.0" x2="661.5" y2="1034.0" stroke="#f2f2f2" stroke-width="0.4"/>
<line x1="54.0" y1="1074.0" x2="661.5" y2="1074.0" stroke="#f2f2f2" stroke-width="0.4"/>
<line x1="54.0" y1="1114.0" x2="661.5" y2="1114.0" stroke="#d0d0d0" stroke-width="0.9"/>
<line x1="54.0" y1="154.0" x2="54.0" y2="1114.0" stroke="#c0c0c0" stroke-width="0.7"/>
<line x1="54.0" y1="86.0" x2="54.0" y2="154.0" stroke="#c0c0c0" stroke-width="0.4" stroke-dasharray="2,4"/>
<text x="56.0" y="78.0" font-family="Arial,Helvetica,sans-serif" font-size="10" text-anchor="start" fill="#1a1a1a" font-weight="bold" transform="rotate(-55,56.0,78.0)">WP_YARD</text>
<text x="56.0" y="92.0" font-family="Arial,Helvetica,sans-serif" font-size="7" text-anchor="start" fill="#666666" font-weight="normal" transform="rotate(-55,56.0,92.0)">mp 0</text>
<line x1="54.0" y1="154.0" x2="54.0" y2="1114.0" stroke="#c0c0c0" stroke-width="0.7"/>
<line x1="54.0" y1="86.0" x2="54.0" y2="154.0" stroke="#c0c0c0" stroke-width="0.4" stroke-dasharray="2,4"/>
<text x="56.0" y="78.0" font-family="Arial,Helvetica,sans-serif" font-size="10" text-anchor="start" fill="#1a1a1a" font-weight="bold" transform="rotate(-55,56.0,78.0)">WP</text>
<text x="56.0" y="92.0" font-family="Arial,Helvetica,sans-serif" font-size="7" text-anchor="start" fill="#666666" font-weight="normal" transform="rotate(-55,56.0,92.0)">mp 0</text>
<line x1="185.8" y1="154.0" x2="185.8" y2="1114.0" stroke="#c0c0c0" stroke-width="0.7"/>
<line x1="185.8" y1="86.0" x2="185.8" y2="154.0" stroke="#c0c0c0" stroke-width="0.4" stroke-dasharray="2,4"/>
<text x="187.8" y="78.0" font-family="Arial,Helvetica,sans-serif" font-size="10" text-anchor="start" fill="#1a1a1a" font-weight="bold" transform="rotate(-55,187.8,78.0)">XP</text>
<text x="187.8" y="92.0" font-family="Arial,Helvetica,sans-serif" font-size="7" text-anchor="start" fill="#666666" font-weight="normal" transform="rotate(-55,187.8,92.0)">mp 542–637</text>
<line x1="234.0" y1="154.0" x2="234.0" y2="1114.0" stroke="#c0c0c0" stroke-width="0.7"/>
<line x1="234.0" y1="86.0" x2="234.0" y2="154.0" stroke="#c0c0c0" stroke-width="0.4" stroke-dasharray="2,4"/>
<polygon points="234.0,154 230.0,147 238.0,147" fill="#212121" opacity="0.35"/>
<text x="236.0" y="78.0" font-family="Arial,Helvetica,sans-serif" font-size="10" text-anchor="start" fill="#1a1a1a" font-weight="bold" transform="rotate(-55,236.0,78.0)">BB</text>
<text x="236.0" y="92.0" font-family="Arial,Helvetica,sans-serif" font-size="7" text-anchor="start" fill="#666666" font-weight="normal" transform="rotate(-55,236.0,92.0)">mp 740–777</text>
<line x1="304.6" y1="154.0" x2="304.6" y2="1114.0" stroke="#c0c0c0" stroke-width="0.7"/>
<line x1="304.6" y1="86.0" x2="304.6" y2="154.0" stroke="#c0c0c0" stroke-width="0.4" stroke-dasharray="2,4"/>
<text x="306.6" y="78.0" font-family="Arial,Helvetica,sans-serif" font-size="10" text-anchor="start" fill="#1a1a1a" font-weight="bold" transform="rotate(-55,306.6,78.0)">JC</text>
<text x="306.6" y="92.0" font-family="Arial,Helvetica,sans-serif" font-size="7" text-anchor="start" fill="#666666" font-weight="normal" transform="rotate(-55,306.6,92.0)">mp 1030–1130</text>
<line x1="352.9" y1="154.0" x2="352.9" y2="1114.0" stroke="#c0c0c0" stroke-width="0.7"/>
<line x1="352.9" y1="86.0" x2="352.9" y2="154.0" stroke="#c0c0c0" stroke-width="0.4" stroke-dasharray="2,4"/>
<polygon points="352.9,154 348.9,147 356.9,147" fill="#212121" opacity="0.35"/>
<text x="354.9" y="78.0" font-family="Arial,Helvetica,sans-serif" font-size="10" text-anchor="start" fill="#1a1a1a" font-weight="bold" transform="rotate(-55,354.9,78.0)">MC</text>
<text x="354.9" y="92.0" font-family="Arial,Helvetica,sans-serif" font-size="7" text-anchor="start" fill="#666666" font-weight="normal" transform="rotate(-55,354.9,92.0)">mp 1228–1318</text>
<line x1="540.4" y1="154.0" x2="540.4" y2="1114.0" stroke="#c0c0c0" stroke-width="0.7"/>
<line x1="540.4" y1="86.0" x2="540.4" y2="154.0" stroke="#c0c0c0" stroke-width="0.4" stroke-dasharray="2,4"/>
<polygon points="540.4,154 536.4,147 544.4,147" fill="#212121" opacity="0.35"/>
<text x="542.4" y="78.0" font-family="Arial,Helvetica,sans-serif" font-size="10" text-anchor="start" fill="#1a1a1a" font-weight="bold" transform="rotate(-55,542.4,78.0)">SK</text>
<text x="542.4" y="92.0" font-family="Arial,Helvetica,sans-serif" font-size="7" text-anchor="start" fill="#666666" font-weight="normal" transform="rotate(-55,542.4,92.0)">mp 1999–2044</text>
<line x1="661.5" y1="154.0" x2="661.5" y2="1114.0" stroke="#c0c0c0" stroke-width="0.7"/>
<line x1="661.5" y1="86.0" x2="661.5" y2="154.0" stroke="#c0c0c0" stroke-width="0.4" stroke-dasharray="2,4"/>
<text x="663.5" y="78.0" font-family="Arial,Helvetica,sans-serif" font-size="10" text-anchor="start" fill="#1a1a1a" font-weight="bold" transform="rotate(-55,663.5,78.0)">HC</text>
<text x="663.5" y="92.0" font-family="Arial,Helvetica,sans-serif" font-size="7" text-anchor="start" fill="#666666" font-weight="normal" transform="rotate(-55,663.5,92.0)">mp 2497</text>
<line x1="209.1" y1="154.0" x2="209.1" y2="1114.0" stroke="#bbddbb" stroke-width="0.6" stroke-dasharray="3,6"/>
<line x1="69.3" y1="154.0" x2="69.3" y2="166.0" stroke="#dddddd" stroke-width="0.6"/>
<text x="71.3" y="82.0" font-family="Arial,Helvetica,sans-serif" font-size="7" text-anchor="start" fill="#aaaaaa" font-weight="normal" transform="rotate(-55,71.3,82.0)">KIEL</text>
<line x1="73.4" y1="154.0" x2="73.4" y2="166.0" stroke="#dddddd" stroke-width="0.6"/>
<text x="75.4" y="82.0" font-family="Arial,Helvetica,sans-serif" font-size="7" text-anchor="start" fill="#aaaaaa" font-weight="normal" transform="rotate(-55,75.4,82.0)">OHARAS_LF</text>
<line x1="73.4" y1="154.0" x2="73.4" y2="166.0" stroke="#dddddd" stroke-width="0.6"/>
<text x="75.4" y="82.0" font-family="Arial,Helvetica,sans-serif" font-size="7" text-anchor="start" fill="#aaaaaa" font-weight="normal" transform="rotate(-55,75.4,82.0)">OHARAS_CS</text>
<text x="50.0" y="157.5" font-family="Arial,Helvetica,sans-serif" font-size="9" text-anchor="end" fill="#666666" font-weight="normal">00:00</text>
<text x="50.0" y="197.5" font-family="Arial,Helvetica,sans-serif" font-size="7" text-anchor="end" fill="#aaaaaa" font-weight="normal">01</text>
<text x="50.0" y="237.5" font-family="Arial,Helvetica,sans-serif" font-size="7" text-anchor="end" fill="#aaaaaa" font-weight="normal">02</text>
<text x="50.0" y="277.5" font-family="Arial,Helvetica,sans-serif" font-size="9" text-anchor="end" fill="#666666" font-weight="normal">03:00</text>
<text x="50.0" y="317.5" font-family="Arial,Helvetica,sans-serif" font-size="7" text-anchor="end" fill="#aaaaaa" font-weight="normal">04</text>
<text x="50.0" y="357.5" font-family="Arial,Helvetica,sans-serif" font-size="7" text-anchor="end" fill="#aaaaaa" font-weight="normal">05</text>
<text x="50.0" y="397.5" font-family="Arial,Helvetica,sans-serif" font-size="9" text-anchor="end" fill="#666666" font-weight="normal">06:00</text>
<text x="50.0" y="437.5" font-family="Arial,Helvetica,sans-serif" font-size="7" text-anchor="end" fill="#aaaaaa" font-weight="normal">07</text>
<text x="50.0" y="477.5" font-family="Arial,Helvetica,sans-serif" font-size="7" text-anchor="end" fill="#aaaaaa" font-weight="normal">08</text>
<text x="50.0" y="517.5" font-family="Arial,Helvetica,sans-serif" font-size="9" text-anchor="end" fill="#666666" font-weight="normal">09:00</text>
<text x="50.0" y="557.5" font-family="Arial,Helvetica,sans-serif" font-size="7" text-anchor="end" fill="#aaaaaa" font-weight="normal">10</text>
<text x="50.0" y="597.5" font-family="Arial,Helvetica,sans-serif" font-size="7" text-anchor="end" fill="#aaaaaa" font-weight="normal">11</text>
<text x="50.0" y="637.5" font-family="Arial,Helvetica,sans-serif" font-size="9" text-anchor="end" fill="#666666" font-weight="normal">12:00</text>
<text x="50.0" y="677.5" font-family="Arial,Helvetica,sans-serif" font-size="7" text-anchor="end" fill="#aaaaaa" font-weight="normal">13</text>
<text x="50.0" y="717.5" font-family="Arial,Helvetica,sans-serif" font-size="7" text-anchor="end" fill="#aaaaaa" font-weight="normal">14</text>
<text x="50.0" y="757.5" font-family="Arial,Helvetica,sans-serif" font-size="9" text-anchor="end" fill="#666666" font-weight="normal">15:00</text>
<text x="50.0" y="797.5" font-family="Arial,Helvetica,sans-serif" font-size="7" text-anchor="end" fill="#aaaaaa" font-weight="normal">16</text>
<text x="50.0" y="837.5" font-family="Arial,Helvetica,sans-serif" font-size="7" text-anchor="end" fill="#aaaaaa" font-weight="normal">17</text>
<text x="50.0" y="877.5" font-family="Arial,Helvetica,sans-serif" font-size="9" text-anchor="end" fill="#666666" font-weight="normal">18:00</text>
<text x="50.0" y="917.5" font-family="Arial,Helvetica,sans-serif" font-size="7" text-anchor="end" fill="#aaaaaa" font-weight="normal">19</text>
<text x="50.0" y="957.5" font-family="Arial,Helvetica,sans-serif" font-size="7" text-anchor="end" fill="#aaaaaa" font-weight="normal">20</text>
<text x="50.0" y="997.5" font-family="Arial,Helvetica,sans-serif" font-size="9" text-anchor="end" fill="#666666" font-weight="normal">21:00</text>
<text x="50.0" y="1037.5" font-family="Arial,Helvetica,sans-serif" font-size="7" text-anchor="end" fill="#aaaaaa" font-weight="normal">22</text>
<text x="50.0" y="1077.5" font-family="Arial,Helvetica,sans-serif" font-size="7" text-anchor="end" fill="#aaaaaa" font-weight="normal">23</text>
<text x="50.0" y="1117.5" font-family="Arial,Helvetica,sans-serif" font-size="9" text-anchor="end" fill="#666666" font-weight="normal">24:00</text>
<text x="357.8" y="15.0" font-family="Arial,Helvetica,sans-serif" font-size="12" text-anchor="middle" fill="#1a1a1a" font-weight="bold">NY&amp;E Northern Lights Subdivision — Timetable No. 4 — String Table</text>
<text x="357.8" y="30.0" font-family="Arial,Helvetica,sans-serif" font-size="9" text-anchor="middle" fill="#666666" font-weight="normal">X = Milepost (WP mp 0 → HC mp 2497, 1 MP = 1 track foot)  ·  Y = Railroad time  ·  Southward trains superior by direction</text>
<text x="50.0" y="149.0" font-family="Arial,Helvetica,sans-serif" font-size="8" text-anchor="end" fill="#666666" font-weight="normal">RR time</text>
<text x="4.0" y="102.0" font-family="Arial,Helvetica,sans-serif" font-size="9" text-anchor="start" fill="#1565c0" font-weight="bold">C&amp;O</text>
<text x="4.0" y="114.0" font-family="Arial,Helvetica,sans-serif" font-size="7" text-anchor="start" fill="#666666" font-weight="normal">East Central</text>
<text x="60.0" y="106.0" font-family="Arial,Helvetica,sans-serif" font-size="8" text-anchor="start" fill="#1565c0" font-weight="normal">← W.Covington WV  ·  WP (mp 0)  ·  E.Cumberland MD →</text>
<line x1="54.0" y1="440.7" x2="185.8" y2="446.7" stroke="#1565c0" stroke-width="1.5"/>
<line x1="185.8" y1="446.7" x2="209.1" y2="453.3" stroke="#1565c0" stroke-width="3.5"/>
<circle cx="185.8" cy="446.7" r="3.5" fill="#c62828" stroke="white" stroke-width="0.8"/>
<line x1="209.1" y1="453.3" x2="234.0" y2="454.7" stroke="#1565c0" stroke-width="1.5"/>
<line x1="234.0" y1="454.7" x2="243.0" y2="461.3" stroke="#1565c0" stroke-width="3.5"/>
<line x1="243.0" y1="461.3" x2="304.6" y2="464.7" stroke="#1565c0" stroke-width="1.5"/>
<line x1="304.6" y1="464.7" x2="328.9" y2="471.3" stroke="#1565c0" stroke-width="3.5"/>
<line x1="328.9" y1="471.3" x2="540.4" y2="476.0" stroke="#1565c0" stroke-width="1.5"/>
<line x1="540.4" y1="476.0" x2="551.3" y2="482.7" stroke="#1565c0" stroke-width="3.5"/>
<line x1="551.3" y1="482.7" x2="661.5" y2="486.7" stroke="#1565c0" stroke-width="1.5"/>
<text x="58.0" y="437.7" font-family="Arial,Helvetica,sans-serif" font-size="8" text-anchor="start" fill="#1565c0" font-weight="bold">1</text>
<line x1="54.0" y1="784.0" x2="185.8" y2="790.0" stroke="#1565c0" stroke-width="1.5"/>
<line x1="185.8" y1="790.0" x2="209.1" y2="796.7" stroke="#1565c0" stroke-width="3.5"/>
<line x1="209.1" y1="796.7" x2="234.0" y2="798.0" stroke="#1565c0" stroke-width="1.5"/>
<line x1="234.0" y1="798.0" x2="243.0" y2="804.7" stroke="#1565c0" stroke-width="3.5"/>
<line x1="243.0" y1="804.7" x2="304.6" y2="808.0" stroke="#1565c0" stroke-width="1.5"/>
<line x1="304.6" y1="808.0" x2="328.9" y2="814.7" stroke="#1565c0" stroke-width="3.5"/>
<line x1="328.9" y1="814.7" x2="540.4" y2="819.3" stroke="#1565c0" stroke-width="1.5"/>
<line x1="540.4" y1="819.3" x2="551.3" y2="826.0" stroke="#1565c0" stroke-width="3.5"/>
<line x1="551.3" y1="826.0" x2="661.5" y2="830.0" stroke="#1565c0" stroke-width="1.5"/>
<text x="58.0" y="781.0" font-family="Arial,Helvetica,sans-serif" font-size="8" text-anchor="start" fill="#1565c0" font-weight="bold">3</text>
<line x1="54.0" y1="314.0" x2="185.8" y2="322.0" stroke="#bf360c" stroke-width="1.5"/>
<circle cx="185.8" cy="322.0" r="3.5" fill="#c62828" stroke="white" stroke-width="0.8"/>
<line x1="209.1" y1="322.0" x2="234.0" y2="324.0" stroke="#bf360c" stroke-width="1.5"/>
<line x1="234.0" y1="324.0" x2="243.0" y2="330.7" stroke="#bf360c" stroke-width="1.5"/>
<circle cx="234.0" cy="324.0" r="3.5" fill="#c62828" stroke="white" stroke-width="0.8"/>
<line x1="243.0" y1="330.7" x2="304.6" y2="334.7" stroke="#bf360c" stroke-width="1.5"/>
<line x1="304.6" y1="334.7" x2="328.9" y2="341.3" stroke="#bf360c" stroke-width="1.5"/>
<line x1="328.9" y1="341.3" x2="540.4" y2="346.7" stroke="#bf360c" stroke-width="1.5"/>
<line x1="540.4" y1="346.7" x2="551.3" y2="373.3" stroke="#bf360c" stroke-width="1.5"/>
<line x1="551.3" y1="373.3" x2="661.5" y2="378.0" stroke="#bf360c" stroke-width="1.5"/>
<text x="58.0" y="311.0" font-family="Arial,Helvetica,sans-serif" font-size="8" text-anchor="start" fill="#bf360c" font-weight="bold">11</text>
<line x1="54.0" y1="214.7" x2="185.8" y2="221.3" stroke="#1565c0" stroke-width="1.5"/>
<line x1="185.8" y1="221.3" x2="209.1" y2="228.0" stroke="#1565c0" stroke-width="3.5"/>
<line x1="209.1" y1="228.0" x2="234.0" y2="230.7" stroke="#1565c0" stroke-width="1.5"/>
<line x1="234.0" y1="230.7" x2="243.0" y2="237.3" stroke="#1565c0" stroke-width="3.5"/>
<line x1="243.0" y1="237.3" x2="304.6" y2="242.7" stroke="#1565c0" stroke-width="1.5"/>
<line x1="304.6" y1="242.7" x2="328.9" y2="249.3" stroke="#1565c0" stroke-width="3.5"/>
<line x1="328.9" y1="249.3" x2="540.4" y2="256.0" stroke="#1565c0" stroke-width="1.5"/>
<line x1="540.4" y1="256.0" x2="551.3" y2="262.7" stroke="#1565c0" stroke-width="3.5"/>
<line x1="551.3" y1="262.7" x2="661.5" y2="268.7" stroke="#1565c0" stroke-width="1.5"/>
<text x="58.0" y="211.7" font-family="Arial,Helvetica,sans-serif" font-size="8" text-anchor="start" fill="#1565c0" font-weight="bold">21</text>
<line x1="54.0" y1="594.0" x2="185.8" y2="600.7" stroke="#1565c0" stroke-width="1.5"/>
<line x1="185.8" y1="600.7" x2="209.1" y2="607.3" stroke="#1565c0" stroke-width="3.5"/>
<line x1="209.1" y1="607.3" x2="234.0" y2="610.0" stroke="#1565c0" stroke-width="1.5"/>
<line x1="234.0" y1="610.0" x2="243.0" y2="616.7" stroke="#1565c0" stroke-width="3.5"/>
<line x1="243.0" y1="616.7" x2="304.6" y2="622.0" stroke="#1565c0" stroke-width="1.5"/>
<line x1="304.6" y1="622.0" x2="328.9" y2="628.7" stroke="#1565c0" stroke-width="3.5"/>
<line x1="328.9" y1="628.7" x2="540.4" y2="635.3" stroke="#1565c0" stroke-width="1.5"/>
<line x1="540.4" y1="635.3" x2="551.3" y2="642.0" stroke="#1565c0" stroke-width="3.5"/>
<line x1="551.3" y1="642.0" x2="661.5" y2="648.0" stroke="#1565c0" stroke-width="1.5"/>
<text x="58.0" y="591.0" font-family="Arial,Helvetica,sans-serif" font-size="8" text-anchor="start" fill="#1565c0" font-weight="bold">23</text>
<line x1="54.0" y1="964.0" x2="185.8" y2="970.7" stroke="#1565c0" stroke-width="1.5"/>
<line x1="185.8" y1="970.7" x2="209.1" y2="977.3" stroke="#1565c0" stroke-width="3.5"/>
<line x1="209.1" y1="977.3" x2="234.0" y2="980.0" stroke="#1565c0" stroke-width="1.5"/>
<line x1="234.0" y1="980.0" x2="243.0" y2="986.7" stroke="#1565c0" stroke-width="3.5"/>
<line x1="243.0" y1="986.7" x2="304.6" y2="992.0" stroke="#1565c0" stroke-width="1.5"/>
<line x1="304.6" y1="992.0" x2="328.9" y2="998.7" stroke="#1565c0" stroke-width="3.5"/>
<line x1="328.9" y1="998.7" x2="540.4" y2="1005.3" stroke="#1565c0" stroke-width="1.5"/>
<line x1="540.4" y1="1005.3" x2="551.3" y2="1012.0" stroke="#1565c0" stroke-width="3.5"/>
<line x1="551.3" y1="1012.0" x2="661.5" y2="1018.0" stroke="#1565c0" stroke-width="1.5"/>
<text x="58.0" y="961.0" font-family="Arial,Helvetica,sans-serif" font-size="8" text-anchor="start" fill="#1565c0" font-weight="bold">25</text>
<line x1="54.0" y1="284.0" x2="185.8" y2="297.3" stroke="#212121" stroke-width="1.5"/>
<line x1="185.8" y1="297.3" x2="209.1" y2="299.3" stroke="#212121" stroke-width="3.5"/>
<line x1="185.8" y1="298.3" x2="217.2" y2="298.3" stroke="#212121" stroke-width="1.5" stroke-dasharray="4,3"/>
<text x="219.2" y="296.3" font-family="Arial,Helvetica,sans-serif" font-size="7" text-anchor="start" fill="#212121" font-weight="normal">QM1</text>
<text x="58.0" y="281.0" font-family="Arial,Helvetica,sans-serif" font-size="8" text-anchor="start" fill="#212121" font-weight="bold">101</text>
<line x1="54.0" y1="164.0" x2="185.8" y2="177.3" stroke="#212121" stroke-width="1.5"/>
<line x1="209.1" y1="177.3" x2="234.0" y2="186.7" stroke="#212121" stroke-width="1.5"/>
<line x1="243.0" y1="186.7" x2="304.6" y2="198.7" stroke="#212121" stroke-width="1.5"/>
<line x1="328.9" y1="198.7" x2="352.9" y2="204.7" stroke="#212121" stroke-width="1.5"/>
<text x="58.0" y="161.0" font-family="Arial,Helvetica,sans-serif" font-size="8" text-anchor="start" fill="#212121" font-weight="bold">111</text>
<line x1="54.0" y1="647.3" x2="185.8" y2="660.7" stroke="#212121" stroke-width="1.5"/>
<line x1="185.8" y1="660.7" x2="209.1" y2="662.7" stroke="#212121" stroke-width="3.5"/>
<line x1="185.8" y1="661.7" x2="217.2" y2="661.7" stroke="#212121" stroke-width="1.5" stroke-dasharray="4,3"/>
<text x="219.2" y="659.7" font-family="Arial,Helvetica,sans-serif" font-size="7" text-anchor="start" fill="#212121" font-weight="normal">QM1</text>
<text x="58.0" y="644.3" font-family="Arial,Helvetica,sans-serif" font-size="8" text-anchor="start" fill="#212121" font-weight="bold">121</text>
<line x1="54.0" y1="620.0" x2="185.8" y2="633.3" stroke="#212121" stroke-width="1.5"/>
<line x1="209.1" y1="633.3" x2="234.0" y2="642.7" stroke="#212121" stroke-width="1.5"/>
<line x1="243.0" y1="642.7" x2="304.6" y2="654.7" stroke="#212121" stroke-width="1.5"/>
<line x1="328.9" y1="654.7" x2="352.9" y2="660.7" stroke="#212121" stroke-width="1.5"/>
<text x="58.0" y="617.0" font-family="Arial,Helvetica,sans-serif" font-size="8" text-anchor="start" fill="#212121" font-weight="bold">131</text>
<line x1="54.0" y1="974.0" x2="185.8" y2="994.0" stroke="#5d4037" stroke-width="1.5"/>
<line x1="185.8" y1="994.0" x2="209.1" y2="996.0" stroke="#5d4037" stroke-width="3.5"/>
<line x1="185.8" y1="995.0" x2="217.2" y2="995.0" stroke="#5d4037" stroke-width="1.5" stroke-dasharray="4,3"/>
<text x="219.2" y="993.0" font-family="Arial,Helvetica,sans-serif" font-size="7" text-anchor="start" fill="#5d4037" font-weight="normal">QM1</text>
<text x="58.0" y="971.0" font-family="Arial,Helvetica,sans-serif" font-size="8" text-anchor="start" fill="#5d4037" font-weight="bold">141</text>
<line x1="661.5" y1="514.0" x2="551.3" y2="518.0" stroke="#1565c0" stroke-width="1.5"/>
<line x1="551.3" y1="518.0" x2="540.4" y2="524.7" stroke="#1565c0" stroke-width="3.5"/>
<line x1="540.4" y1="524.7" x2="328.9" y2="529.3" stroke="#1565c0" stroke-width="1.5"/>
<line x1="328.9" y1="529.3" x2="304.6" y2="536.0" stroke="#1565c0" stroke-width="3.5"/>
<line x1="304.6" y1="536.0" x2="243.0" y2="539.3" stroke="#1565c0" stroke-width="1.5"/>
<line x1="243.0" y1="539.3" x2="234.0" y2="546.0" stroke="#1565c0" stroke-width="3.5"/>
<line x1="234.0" y1="546.0" x2="209.1" y2="547.3" stroke="#1565c0" stroke-width="1.5"/>
<line x1="209.1" y1="547.3" x2="185.8" y2="554.0" stroke="#1565c0" stroke-width="3.5"/>
<circle cx="209.1" cy="547.3" r="3.5" fill="#c62828" stroke="white" stroke-width="0.8"/>
<line x1="185.8" y1="554.0" x2="54.0" y2="560.0" stroke="#1565c0" stroke-width="1.5"/>
<text x="657.5" y="511.0" font-family="Arial,Helvetica,sans-serif" font-size="8" text-anchor="end" fill="#1565c0" font-weight="bold">2</text>
<line x1="661.5" y1="864.0" x2="551.3" y2="868.0" stroke="#1565c0" stroke-width="1.5"/>
<line x1="551.3" y1="868.0" x2="540.4" y2="874.7" stroke="#1565c0" stroke-width="3.5"/>
<line x1="540.4" y1="874.7" x2="328.9" y2="879.3" stroke="#1565c0" stroke-width="1.5"/>
<line x1="328.9" y1="879.3" x2="304.6" y2="886.0" stroke="#1565c0" stroke-width="3.5"/>
<line x1="304.6" y1="886.0" x2="243.0" y2="889.3" stroke="#1565c0" stroke-width="1.5"/>
<line x1="243.0" y1="889.3" x2="234.0" y2="896.0" stroke="#1565c0" stroke-width="3.5"/>
<line x1="234.0" y1="896.0" x2="209.1" y2="897.3" stroke="#1565c0" stroke-width="1.5"/>
<line x1="209.1" y1="897.3" x2="185.8" y2="904.0" stroke="#1565c0" stroke-width="3.5"/>
<line x1="185.8" y1="904.0" x2="54.0" y2="910.0" stroke="#1565c0" stroke-width="1.5"/>
<text x="657.5" y="861.0" font-family="Arial,Helvetica,sans-serif" font-size="8" text-anchor="end" fill="#1565c0" font-weight="bold">4</text>
<line x1="661.5" y1="404.0" x2="551.3" y2="410.0" stroke="#bf360c" stroke-width="1.5"/>
<line x1="551.3" y1="410.0" x2="540.4" y2="416.7" stroke="#bf360c" stroke-width="1.5"/>
<line x1="540.4" y1="416.7" x2="328.9" y2="423.3" stroke="#bf360c" stroke-width="1.5"/>
<line x1="328.9" y1="423.3" x2="304.6" y2="430.0" stroke="#bf360c" stroke-width="1.5"/>
<line x1="304.6" y1="430.0" x2="243.0" y2="435.3" stroke="#bf360c" stroke-width="1.5"/>
<line x1="243.0" y1="435.3" x2="234.0" y2="442.0" stroke="#bf360c" stroke-width="1.5"/>
<line x1="234.0" y1="442.0" x2="209.1" y2="444.7" stroke="#bf360c" stroke-width="1.5"/>
<line x1="209.1" y1="444.7" x2="185.8" y2="464.0" stroke="#bf360c" stroke-width="1.5"/>
<circle cx="209.1" cy="444.7" r="3.5" fill="#c62828" stroke="white" stroke-width="0.8"/>
<line x1="185.8" y1="464.0" x2="54.0" y2="470.7" stroke="#bf360c" stroke-width="1.5"/>
<text x="657.5" y="401.0" font-family="Arial,Helvetica,sans-serif" font-size="8" text-anchor="end" fill="#bf360c" font-weight="bold">52</text>
<line x1="661.5" y1="294.7" x2="551.3" y2="300.7" stroke="#1565c0" stroke-width="1.5"/>
<line x1="551.3" y1="300.7" x2="540.4" y2="307.3" stroke="#1565c0" stroke-width="3.5"/>
<line x1="540.4" y1="307.3" x2="328.9" y2="314.0" stroke="#1565c0" stroke-width="1.5"/>
<line x1="328.9" y1="314.0" x2="304.6" y2="322.0" stroke="#1565c0" stroke-width="3.5"/>
<line x1="304.6" y1="322.0" x2="243.0" y2="327.3" stroke="#1565c0" stroke-width="1.5"/>
<line x1="243.0" y1="327.3" x2="234.0" y2="334.0" stroke="#1565c0" stroke-width="3.5"/>
<circle cx="243.0" cy="327.3" r="3.5" fill="#c62828" stroke="white" stroke-width="0.8"/>
<line x1="234.0" y1="334.0" x2="209.1" y2="336.7" stroke="#1565c0" stroke-width="1.5"/>
<line x1="209.1" y1="336.7" x2="185.8" y2="343.3" stroke="#1565c0" stroke-width="3.5"/>
<circle cx="209.1" cy="336.7" r="3.5" fill="#c62828" stroke="white" stroke-width="0.8"/>
<line x1="185.8" y1="343.3" x2="54.0" y2="350.0" stroke="#1565c0" stroke-width="1.5"/>
<text x="657.5" y="291.7" font-family="Arial,Helvetica,sans-serif" font-size="8" text-anchor="end" fill="#1565c0" font-weight="bold">22</text>
<line x1="661.5" y1="679.3" x2="551.3" y2="685.3" stroke="#1565c0" stroke-width="1.5"/>
<line x1="551.3" y1="685.3" x2="540.4" y2="692.0" stroke="#1565c0" stroke-width="3.5"/>
<line x1="540.4" y1="692.0" x2="328.9" y2="698.7" stroke="#1565c0" stroke-width="1.5"/>
<line x1="328.9" y1="698.7" x2="304.6" y2="705.3" stroke="#1565c0" stroke-width="3.5"/>
<line x1="304.6" y1="705.3" x2="243.0" y2="710.7" stroke="#1565c0" stroke-width="1.5"/>
<line x1="243.0" y1="710.7" x2="234.0" y2="717.3" stroke="#1565c0" stroke-width="3.5"/>
<line x1="234.0" y1="717.3" x2="209.1" y2="720.0" stroke="#1565c0" stroke-width="1.5"/>
<line x1="209.1" y1="720.0" x2="185.8" y2="726.7" stroke="#1565c0" stroke-width="3.5"/>
<circle cx="209.1" cy="720.0" r="3.5" fill="#c62828" stroke="white" stroke-width="0.8"/>
<line x1="185.8" y1="726.7" x2="54.0" y2="733.3" stroke="#1565c0" stroke-width="1.5"/>
<text x="657.5" y="676.3" font-family="Arial,Helvetica,sans-serif" font-size="8" text-anchor="end" fill="#1565c0" font-weight="bold">24</text>
<line x1="661.5" y1="1046.0" x2="551.3" y2="1052.0" stroke="#1565c0" stroke-width="1.5"/>
<line x1="551.3" y1="1052.0" x2="540.4" y2="1058.7" stroke="#1565c0" stroke-width="3.5"/>
<line x1="540.4" y1="1058.7" x2="328.9" y2="1065.3" stroke="#1565c0" stroke-width="1.5"/>
<line x1="328.9" y1="1065.3" x2="304.6" y2="1072.0" stroke="#1565c0" stroke-width="3.5"/>
<line x1="304.6" y1="1072.0" x2="243.0" y2="1077.3" stroke="#1565c0" stroke-width="1.5"/>
<line x1="243.0" y1="1077.3" x2="234.0" y2="1084.0" stroke="#1565c0" stroke-width="3.5"/>
<line x1="234.0" y1="1084.0" x2="209.1" y2="1086.7" stroke="#1565c0" stroke-width="1.5"/>
<line x1="209.1" y1="1086.7" x2="185.8" y2="1093.3" stroke="#1565c0" stroke-width="3.5"/>
<line x1="185.8" y1="1093.3" x2="54.0" y2="1100.0" stroke="#1565c0" stroke-width="1.5"/>
<text x="657.5" y="1043.0" font-family="Arial,Helvetica,sans-serif" font-size="8" text-anchor="end" fill="#1565c0" font-weight="bold">26</text>
<line x1="185.8" y1="359.3" x2="54.0" y2="376.0" stroke="#bf360c" stroke-width="1.5"/>
<text x="181.8" y="356.3" font-family="Arial,Helvetica,sans-serif" font-size="8" text-anchor="end" fill="#bf360c" font-weight="bold">102</text>
<line x1="352.9" y1="276.7" x2="328.9" y2="291.3" stroke="#212121" stroke-width="1.5"/>
<line x1="304.6" y1="291.3" x2="243.0" y2="308.7" stroke="#212121" stroke-width="1.5"/>
<line x1="234.0" y1="308.7" x2="209.1" y2="315.3" stroke="#212121" stroke-width="1.5"/>
<line x1="209.1" y1="315.3" x2="185.8" y2="323.3" stroke="#212121" stroke-width="1.5"/>
<circle cx="209.1" cy="315.3" r="3.5" fill="#c62828" stroke="white" stroke-width="0.8"/>
<line x1="185.8" y1="323.3" x2="54.0" y2="340.0" stroke="#212121" stroke-width="1.5"/>
<text x="348.9" y="273.7" font-family="Arial,Helvetica,sans-serif" font-size="8" text-anchor="end" fill="#212121" font-weight="bold">112</text>
<circle cx="209.1" cy="730.0" r="3.5" fill="#c62828" stroke="white" stroke-width="0.8"/>
<line x1="185.8" y1="730.0" x2="54.0" y2="746.7" stroke="#212121" stroke-width="1.5"/>
<text x="181.8" y="727.0" font-family="Arial,Helvetica,sans-serif" font-size="8" text-anchor="end" fill="#212121" font-weight="bold">122</text>
<line x1="352.9" y1="704.0" x2="328.9" y2="718.7" stroke="#212121" stroke-width="1.5"/>
<line x1="304.6" y1="718.7" x2="243.0" y2="736.0" stroke="#212121" stroke-width="1.5"/>
<line x1="234.0" y1="736.0" x2="209.1" y2="742.7" stroke="#212121" stroke-width="1.5"/>
<line x1="185.8" y1="742.7" x2="54.0" y2="759.3" stroke="#212121" stroke-width="1.5"/>
<text x="348.9" y="701.0" font-family="Arial,Helvetica,sans-serif" font-size="8" text-anchor="end" fill="#212121" font-weight="bold">132</text>
<line x1="185.8" y1="1039.3" x2="54.0" y2="1056.0" stroke="#5d4037" stroke-width="1.5"/>
<text x="181.8" y="1036.3" font-family="Arial,Helvetica,sans-serif" font-size="8" text-anchor="end" fill="#5d4037" font-weight="bold">142</text>
<line x1="49.5" y1="307.3" x2="49.5" y2="315.3" stroke="#9e9e9e" stroke-width="4.0"/>
<line x1="49.5" y1="311.3" x2="31.5" y2="311.3" stroke="#9e9e9e" stroke-width="1.5" stroke-dasharray="3,3"/>
<line x1="49.5" y1="96.9" x2="49.5" y2="99.9" stroke="#9e9e9e" stroke-width="3.0"/>
<text x="42.5" y="304.3" font-family="Arial,Helvetica,sans-serif" font-size="7" text-anchor="end" fill="#9e9e9e" font-weight="bold">C&amp;O 91</text>
<line x1="49.5" y1="647.3" x2="49.5" y2="655.3" stroke="#9e9e9e" stroke-width="4.0"/>
<line x1="49.5" y1="651.3" x2="31.5" y2="651.3" stroke="#9e9e9e" stroke-width="1.5" stroke-dasharray="3,3"/>
<line x1="49.5" y1="120.9" x2="49.5" y2="123.9" stroke="#9e9e9e" stroke-width="3.0"/>
<text x="42.5" y="644.3" font-family="Arial,Helvetica,sans-serif" font-size="7" text-anchor="end" fill="#9e9e9e" font-weight="bold">C&amp;O 93</text>
<line x1="49.5" y1="762.0" x2="49.5" y2="773.3" stroke="#1976d2" stroke-width="4.0"/>
<line x1="49.5" y1="767.7" x2="31.5" y2="767.7" stroke="#1976d2" stroke-width="1.5" stroke-dasharray="3,3"/>
<line x1="49.5" y1="129.1" x2="49.5" y2="132.1" stroke="#1976d2" stroke-width="3.0"/>
<text x="42.5" y="759.0" font-family="Arial,Helvetica,sans-serif" font-size="7" text-anchor="end" fill="#1976d2" font-weight="bold">C&amp;O 5</text>
<line x1="49.5" y1="234.7" x2="49.5" y2="245.3" stroke="#1976d2" stroke-width="4.0"/>
<line x1="49.5" y1="240.0" x2="31.5" y2="240.0" stroke="#1976d2" stroke-width="1.5" stroke-dasharray="3,3"/>
<line x1="49.5" y1="91.7" x2="49.5" y2="94.7" stroke="#1976d2" stroke-width="3.0"/>
<text x="42.5" y="231.7" font-family="Arial,Helvetica,sans-serif" font-size="7" text-anchor="end" fill="#1976d2" font-weight="bold">C&amp;O 7</text>
<line x1="49.5" y1="968.7" x2="49.5" y2="978.7" stroke="#1976d2" stroke-width="4.0"/>
<line x1="49.5" y1="973.7" x2="31.5" y2="973.7" stroke="#1976d2" stroke-width="1.5" stroke-dasharray="3,3"/>
<line x1="49.5" y1="143.7" x2="49.5" y2="146.7" stroke="#1976d2" stroke-width="3.0"/>
<text x="42.5" y="965.7" font-family="Arial,Helvetica,sans-serif" font-size="7" text-anchor="end" fill="#1976d2" font-weight="bold">C&amp;O 23</text>
<line x1="58.5" y1="617.3" x2="58.5" y2="625.3" stroke="#9e9e9e" stroke-width="4.0"/>
<line x1="58.5" y1="621.3" x2="76.5" y2="621.3" stroke="#9e9e9e" stroke-width="1.5" stroke-dasharray="3,3"/>
<line x1="58.5" y1="118.8" x2="58.5" y2="121.8" stroke="#9e9e9e" stroke-width="3.0"/>
<text x="65.5" y="614.3" font-family="Arial,Helvetica,sans-serif" font-size="7" text-anchor="start" fill="#9e9e9e" font-weight="bold">C&amp;O 92</text>
<line x1="58.5" y1="930.7" x2="58.5" y2="938.7" stroke="#9e9e9e" stroke-width="4.0"/>
<line x1="58.5" y1="934.7" x2="76.5" y2="934.7" stroke="#9e9e9e" stroke-width="1.5" stroke-dasharray="3,3"/>
<line x1="58.5" y1="141.0" x2="58.5" y2="144.0" stroke="#9e9e9e" stroke-width="3.0"/>
<text x="65.5" y="927.7" font-family="Arial,Helvetica,sans-serif" font-size="7" text-anchor="start" fill="#9e9e9e" font-weight="bold">C&amp;O 94</text>
<line x1="58.5" y1="620.7" x2="58.5" y2="630.7" stroke="#1976d2" stroke-width="4.0"/>
<line x1="58.5" y1="625.7" x2="76.5" y2="625.7" stroke="#1976d2" stroke-width="1.5" stroke-dasharray="3,3"/>
<line x1="58.5" y1="119.1" x2="58.5" y2="122.1" stroke="#1976d2" stroke-width="3.0"/>
<text x="65.5" y="617.7" font-family="Arial,Helvetica,sans-serif" font-size="7" text-anchor="start" fill="#1976d2" font-weight="bold">C&amp;O 12</text>
<line x1="58.5" y1="1056.7" x2="58.5" y2="1066.7" stroke="#1976d2" stroke-width="4.0"/>
<line x1="58.5" y1="1061.7" x2="76.5" y2="1061.7" stroke="#1976d2" stroke-width="1.5" stroke-dasharray="3,3"/>
<line x1="58.5" y1="149.9" x2="58.5" y2="152.9" stroke="#1976d2" stroke-width="3.0"/>
<text x="65.5" y="1053.7" font-family="Arial,Helvetica,sans-serif" font-size="7" text-anchor="start" fill="#1976d2" font-weight="bold">C&amp;O 6</text>
<line x1="58.5" y1="852.7" x2="58.5" y2="862.7" stroke="#1976d2" stroke-width="4.0"/>
<line x1="58.5" y1="857.7" x2="76.5" y2="857.7" stroke="#1976d2" stroke-width="1.5" stroke-dasharray="3,3"/>
<line x1="58.5" y1="135.5" x2="58.5" y2="138.5" stroke="#1976d2" stroke-width="3.0"/>
<text x="65.5" y="849.7" font-family="Arial,Helvetica,sans-serif" font-size="7" text-anchor="start" fill="#1976d2" font-weight="bold">C&amp;O 32</text>
<text x="671.0" y="164.0" font-family="Arial,Helvetica,sans-serif" font-size="10" text-anchor="start" fill="#1a1a1a" font-weight="bold">Legend</text>
<line x1="671.0" y1="177.0" x2="693.0" y2="177.0" stroke="#1565c0" stroke-width="2.0"/>
<text x="697.0" y="180.0" font-family="Arial,Helvetica,sans-serif" font-size="9" text-anchor="start" fill="#666666" font-weight="normal">Passenger</text>
<line x1="671.0" y1="197.0" x2="693.0" y2="197.0" stroke="#212121" stroke-width="2.0"/>
<text x="697.0" y="200.0" font-family="Arial,Helvetica,sans-serif" font-size="9" text-anchor="start" fill="#666666" font-weight="normal">Coal</text>
<line x1="671.0" y1="217.0" x2="693.0" y2="217.0" stroke="#bf360c" stroke-width="2.0"/>
<text x="697.0" y="220.0" font-family="Arial,Helvetica,sans-serif" font-size="9" text-anchor="start" fill="#666666" font-weight="normal">Freight/Coke</text>
<text x="671.0" y="248.0" font-family="Arial,Helvetica,sans-serif" font-size="9" text-anchor="start" fill="#1a1a1a" font-weight="bold">Dwell:</text>
<line x1="671.0" y1="266.0" x2="693.0" y2="266.0" stroke="#555555" stroke-width="3.5"/>
<text x="697.0" y="269.0" font-family="Arial,Helvetica,sans-serif" font-size="9" text-anchor="start" fill="#666666" font-weight="normal">Active work</text>
<line x1="671.0" y1="283.0" x2="693.0" y2="283.0" stroke="#555555" stroke-width="1.5"/>
<text x="697.0" y="286.0" font-family="Arial,Helvetica,sans-serif" font-size="9" text-anchor="start" fill="#666666" font-weight="normal">Schedule wait</text>
<text x="671.0" y="303.0" font-family="Arial,Helvetica,sans-serif" font-size="9" text-anchor="start" fill="#1a1a1a" font-weight="bold">Marks:</text>
<line x1="671.0" y1="321.0" x2="693.0" y2="321.0" stroke="#555555" stroke-width="1.5" stroke-dasharray="4,3"/>
<text x="697.0" y="324.0" font-family="Arial,Helvetica,sans-serif" font-size="9" text-anchor="start" fill="#666666" font-weight="normal">Mine spur work</text>
<circle cx="682.0" cy="338.0" r="3.5" fill="#c62828" stroke="white" stroke-width="0.8"/>
<text x="697.0" y="341.0" font-family="Arial,Helvetica,sans-serif" font-size="9" text-anchor="start" fill="#666666" font-weight="normal">Meet point</text>
<text x="671.0" y="358.0" font-family="Arial,Helvetica,sans-serif" font-size="9" text-anchor="start" fill="#1a1a1a" font-weight="bold">C&amp;O:</text>
<line x1="671.0" y1="376.0" x2="682.0" y2="376.0" stroke="#9e9e9e" stroke-width="4.0"/>
<line x1="682.0" y1="376.0" x2="693.0" y2="376.0" stroke="#9e9e9e" stroke-width="1.5" stroke-dasharray="3,3"/>
<text x="697.0" y="379.0" font-family="Arial,Helvetica,sans-serif" font-size="9" text-anchor="start" fill="#666666" font-weight="normal">At WP (bold=dwell)</text>
<text x="671.0" y="396.0" font-family="Arial,Helvetica,sans-serif" font-size="9" text-anchor="start" fill="#1a1a1a" font-weight="bold">Station types:</text>
<polygon points="682.0,410 678.0,403 686.0,403" fill="#212121" opacity="0.35"/>
<text x="697.0" y="410.0" font-family="Arial,Helvetica,sans-serif" font-size="9" text-anchor="start" fill="#666666" font-weight="normal">▲ Switchback</text>
<line x1="675.0" y1="428.0" x2="689.0" y2="428.0" stroke="#bbddbb" stroke-width="1.2" stroke-dasharray="3,6"/>
<text x="697.0" y="431.0" font-family="Arial,Helvetica,sans-serif" font-size="9" text-anchor="start" fill="#666666" font-weight="normal">Long siding exit</text>
</svg>