<?xml version="1.0" encoding="UTF-8"?>
<svg xmlns="http://www.w3.org/2000/svg" width="861" height="1082" viewBox="0 0 861 1082">
<rect x="0.0" y="0.0" width="861.0" height="1082.0" fill="#ffffff" stroke="none" stroke-width="0" rx="0"/>
<rect x="54.0" y="86.0" width="56.0" height="960.0" fill="#eaf3fb" stroke="#aaccee" stroke-width="0.8" rx="0"/>
<rect x="110.0" y="86.0" width="34.0" height="960.0" fill="#f5f5f0" stroke="#cccccc" stroke-width="0.5" rx="0"/>
<rect x="144.0" y="86.0" width="607.5" height="960.0" fill="#fafafa" stroke="#cccccc" stroke-width="0.5" rx="0"/>
<line x1="54.0" y1="86.0" x2="751.5" y2="86.0" stroke="#d0d0d0" stroke-width="0.9"/>
<line x1="54.0" y1="126.0" x2="751.5" y2="126.0" stroke="#f2f2f2" stroke-width="0.4"/>
<line x1="54.0" y1="166.0" x2="751.5" y2="166.0" stroke="#f2f2f2" stroke-width="0.4"/>
<line x1="54.0" y1="206.0" x2="751.5" y2="206.0" stroke="#e4e4e4" stroke-width="0.6"/>
<line x1="54.0" y1="246.0" x2="751.5" y2="246.0" stroke="#f2f2f2" stroke-width="0.4"/>
<line x1="54.0" y1="286.0" x2="751.5" y2="286.0" stroke="#f2f2f2" stroke-width="0.4"/>
<line x1="54.0" y1="326.0" x2="751.5" y2="326.0" stroke="#d0d0d0" stroke-width="0.9"/>
<line x1="54.0" y1="366.0" x2="751.5" y2="366.0" stroke="#f2f2f2" stroke-width="0.4"/>
<line x1="54.0" y1="406.0" x2="751.5" y2="406.0" stroke="#f2f2f2" stroke-width="0.4"/>
<line x1="54.0" y1="446.0" x2="751.5" y2="446.0" stroke="#e4e4e4" stroke-width="0.6"/>
<line x1="54.0" y1="486.0" x2="751.5" y2="486.0" stroke="#f2f2f2" stroke-width="0.4"/>
<line x1="54.0" y1="526.0" x2="751.5" y2="526.0" stroke="#f2f2f2" stroke-width="0.4"/>
<line x1="54.0" y1="566.0" x2="751.5" y2="566.0" stroke="#d0d0d0" stroke-width="0.9"/>
<line x1="54.0" y1="606.0" x2="751.5" y2="606.0" stroke="#f2f2f2" stroke-width="0.4"/>
<line x1="54.0" y1="646.0" x2="751.5" y2="646.0" stroke="#f2f2f2" stroke-width="0.4"/>
<line x1="54.0" y1="686.0" x2="751.5" y2="686.0" stroke="#e4e4e4" stroke-width="0.6"/>
<line x1="54.0" y1="726.0" x2="751.5" y2="726.0" stroke="#f2f2f2" stroke-width="0.4"/>
<line x1="54.0" y1="766.0" x2="751.5" y2="766.0" stroke="#f2f2f2" stroke-width="0.4"/>
<line x1="54.0" y1="806.0" x2="751.5" y2="806.0" stroke="#d0d0d0" stroke-width="0.9"/>
<line x1="54.0" y1="846.0" x2="751.5" y2="846.0" stroke="#f2f2f2" stroke-width="0.4"/>
<line x1="54.0" y1="886.0" x2="751.5" y2="886.0" stroke="#f2f2f2" stroke-width="0.4"/>
<line x1="54.0" y1="926.0" x2="751.5" y2="926.0" stroke="#e4e4e4" stroke-width="0.6"/>
<line x1="54.0" y1="966.0" x2="751.5" y2="966.0" stroke="#f2f2f2" stroke-width="0.4"/>
<line x1="54.0" y1="1006.0" x2="751.5" y2="1006.0" stroke="#f2f2f2" stroke-width="0.4"/>
<line x1="54.0" y1="1046.0" x2="751.5" y2="1046.0" stroke="#d0d0d0" stroke-width="0.9"/>
<line x1="144.0" y1="86.0" x2="144.0" y2="1046.0" stroke="#c0c0c0" stroke-width="0.7"/>
<text x="146.0" y="78.0" font-family="Arial,Helvetica,sans-serif" font-size="10" text-anchor="start" fill="#1a1a1a" font-weight="bold" transform="rotate(-55,146.0,78.0)">WP</text>
<line x1="275.8" y1="86.0" x2="275.8" y2="1046.0" stroke="#c0c0c0" stroke-width="0.7"/>
<text x="277.8" y="78.0" font-family="Arial,Helvetica,sans-serif" font-size="10" text-anchor="start" fill="#1a1a1a" font-weight="bold" transform="rotate(-55,277.8,78.0)">XP</text>
<line x1="324.0" y1="86.0" x2="324.0" y2="1046.0" stroke="#c0c0c0" stroke-width="0.7"/>
<polygon points="324.0,86 320.0,79 328.0,79" fill="#212121" opacity="0.35"/>
<text x="326.0" y="78.0" font-family="Arial,Helvetica,sans-serif" font-size="10" text-anchor="start" fill="#1a1a1a" font-weight="bold" transform="rotate(-55,326.0,78.0)">BB</text>
<line x1="394.6" y1="86.0" x2="394.6" y2="1046.0" stroke="#c0c0c0" stroke-width="0.7"/>
<text x="396.6" y="78.0" font-family="Arial,Helvetica,sans-serif" font-size="10" text-anchor="start" fill="#1a1a1a" font-weight="bold" transform="rotate(-55,396.6,78.0)">JC</text>
<line x1="442.9" y1="86.0" x2="442.9" y2="1046.0" stroke="#c0c0c0" stroke-width="0.7"/>
<polygon points="442.9,86 438.9,79 446.9,79" fill="#212121" opacity="0.35"/>
<text x="444.9" y="78.0" font-family="Arial,Helvetica,sans-serif" font-size="10" text-anchor="start" fill="#1a1a1a" font-weight="bold" transform="rotate(-55,444.9,78.0)">MC</text>
<line x1="630.4" y1="86.0" x2="630.4" y2="1046.0" stroke="#c0c0c0" stroke-width="0.7"/>
<polygon points="630.4,86 626.4,79 634.4,79" fill="#212121" opacity="0.35"/>
<text x="632.4" y="78.0" font-family="Arial,Helvetica,sans-serif" font-size="10" text-anchor="start" fill="#1a1a1a" font-weight="bold" transform="rotate(-55,632.4,78.0)">SK</text>
<line x1="751.5" y1="86.0" x2="751.5" y2="1046.0" stroke="#c0c0c0" stroke-width="0.7"/>
<text x="753.5" y="78.0" font-family="Arial,Helvetica,sans-serif" font-size="10" text-anchor="start" fill="#1a1a1a" font-weight="bold" transform="rotate(-55,753.5,78.0)">HC</text>
<line x1="124.0" y1="86.0" x2="124.0" y2="1046.0" stroke="#c0c0c0" stroke-width="1.0"/>
<text x="126.0" y="78.0" font-family="Arial,Helvetica,sans-serif" font-size="10" text-anchor="start" fill="#1a1a1a" font-weight="bold" transform="rotate(-55,126.0,78.0)">WP_YARD</text>
<text x="144.0" y="83.0" font-family="Arial,Helvetica,sans-serif" font-size="6.5" text-anchor="middle" fill="#aaaaaa" font-weight="normal">0</text>
<text x="287.4" y="83.0" font-family="Arial,Helvetica,sans-serif" font-size="6.5" text-anchor="middle" fill="#aaaaaa" font-weight="normal">45–53</text>
<text x="328.5" y="83.0" font-family="Arial,Helvetica,sans-serif" font-size="6.5" text-anchor="middle" fill="#aaaaaa" font-weight="normal">62–65</text>
<text x="406.7" y="83.0" font-family="Arial,Helvetica,sans-serif" font-size="6.5" text-anchor="middle" fill="#aaaaaa" font-weight="normal">86–94</text>
<text x="453.8" y="83.0" font-family="Arial,Helvetica,sans-serif" font-size="6.5" text-anchor="middle" fill="#aaaaaa" font-weight="normal">102–110</text>
<text x="635.9" y="83.0" font-family="Arial,Helvetica,sans-serif" font-size="6.5" text-anchor="middle" fill="#aaaaaa" font-weight="normal">167–170</text>
<text x="751.5" y="83.0" font-family="Arial,Helvetica,sans-serif" font-size="6.5" text-anchor="middle" fill="#aaaaaa" font-weight="normal">208</text>
<text x="124.0" y="83.0" font-family="Arial,Helvetica,sans-serif" font-size="6.5" text-anchor="middle" fill="#aaaaaa" font-weight="normal">0</text>
<line x1="299.0" y1="86.0" x2="299.0" y2="1046.0" stroke="#bbddbb" stroke-width="0.6" stroke-dasharray="3,6"/>
<line x1="159.3" y1="86.0" x2="159.3" y2="98.0" stroke="#dddddd" stroke-width="0.6"/>
<text x="161.3" y="82.0" font-family="Arial,Helvetica,sans-serif" font-size="7" text-anchor="start" fill="#aaaaaa" font-weight="normal" transform="rotate(-55,161.3,82.0)">KIEL</text>
<line x1="163.4" y1="86.0" x2="163.4" y2="98.0" stroke="#dddddd" stroke-width="0.6"/>
<text x="165.4" y="82.0" font-family="Arial,Helvetica,sans-serif" font-size="7" text-anchor="start" fill="#aaaaaa" font-weight="normal" transform="rotate(-55,165.4,82.0)">OHARAS_LF</text>
<line x1="163.4" y1="86.0" x2="163.4" y2="98.0" stroke="#dddddd" stroke-width="0.6"/>
<text x="165.4" y="82.0" font-family="Arial,Helvetica,sans-serif" font-size="7" text-anchor="start" fill="#aaaaaa" font-weight="normal" transform="rotate(-55,165.4,82.0)">OHARAS_CS</text>
<line x1="82.0" y1="86.0" x2="82.0" y2="1046.0" stroke="#aaccee" stroke-width="0.5"/>
<text x="64.0" y="64.0" font-family="Arial,Helvetica,sans-serif" font-size="8" text-anchor="middle" fill="#1565c0" font-weight="bold">C&amp;O</text>
<text x="64.0" y="75.0" font-family="Arial,Helvetica,sans-serif" font-size="7" text-anchor="middle" fill="#666666" font-weight="normal">West</text>
<text x="96.0" y="64.0" font-family="Arial,Helvetica,sans-serif" font-size="8" text-anchor="middle" fill="#1565c0" font-weight="bold">C&amp;O</text>
<text x="96.0" y="75.0" font-family="Arial,Helvetica,sans-serif" font-size="7" text-anchor="middle" fill="#666666" font-weight="normal">East</text>
<text x="50.0" y="89.5" font-family="Arial,Helvetica,sans-serif" font-size="9" text-anchor="end" fill="#666666" font-weight="normal">00:00</text>
<text x="50.0" y="129.5" font-family="Arial,Helvetica,sans-serif" font-size="7" text-anchor="end" fill="#aaaaaa" font-weight="normal">01</text>
<text x="50.0" y="169.5" font-family="Arial,Helvetica,sans-serif" font-size="7" text-anchor="end" fill="#aaaaaa" font-weight="normal">02</text>
<text x="50.0" y="209.5" font-family="Arial,Helvetica,sans-serif" font-size="9" text-anchor="end" fill="#666666" font-weight="normal">03:00</text>
<text x="50.0" y="249.5" font-family="Arial,Helvetica,sans-serif" font-size="7" text-anchor="end" fill="#aaaaaa" font-weight="normal">04</text>
<text x="50.0" y="289.5" font-family="Arial,Helvetica,sans-serif" font-size="7" text-anchor="end" fill="#aaaaaa" font-weight="normal">05</text>
<text x="50.0" y="329.5" font-family="Arial,Helvetica,sans-serif" font-size="9" text-anchor="end" fill="#666666" font-weight="normal">06:00</text>
<text x="50.0" y="369.5" font-family="Arial,Helvetica,sans-serif" font-size="7" text-anchor="end" fill="#aaaaaa" font-weight="normal">07</text>
<text x="50.0" y="409.5" font-family="Arial,Helvetica,sans-serif" font-size="7" text-anchor="end" fill="#aaaaaa" font-weight="normal">08</text>
<text x="50.0" y="449.5" font-family="Arial,Helvetica,sans-serif" font-size="9" text-anchor="end" fill="#666666" font-weight="normal">09:00</text>
<text x="50.0" y="489.5" font-family="Arial,Helvetica,sans-serif" font-size="7" text-anchor="end" fill="#aaaaaa" font-weight="normal">10</text>
<text x="50.0" y="529.5" font-family="Arial,Helvetica,sans-serif" font-size="7" text-anchor="end" fill="#aaaaaa" font-weight="normal">11</text>
<text x="50.0" y="569.5" font-family="Arial,Helvetica,sans-serif" font-size="9" text-anchor="end" fill="#666666" font-weight="normal">12:00</text>
<text x="50.0" y="609.5" font-family="Arial,Helvetica,sans-serif" font-size="7" text-anchor="end" fill="#aaaaaa" font-weight="normal">13</text>
<text x="50.0" y="649.5" font-family="Arial,Helvetica,sans-serif" font-size="7" text-anchor="end" fill="#aaaaaa" font-weight="normal">14</text>
<text x="50.0" y="689.5" font-family="Arial,Helvetica,sans-serif" font-size="9" text-anchor="end" fill="#666666" font-weight="normal">15:00</text>
<text x="50.0" y="729.5" font-family="Arial,Helvetica,sans-serif" font-size="7" text-anchor="end" fill="#aaaaaa" font-weight="normal">16</text>
<text x="50.0" y="769.5" font-family="Arial,Helvetica,sans-serif" font-size="7" text-anchor="end" fill="#aaaaaa" font-weight="normal">17</text>
<text x="50.0" y="809.5" font-family="Arial,Helvetica,sans-serif" font-size="9" text-anchor="end" fill="#666666" font-weight="normal">18:00</text>
<text x="50.0" y="849.5" font-family="Arial,Helvetica,sans-serif" font-size="7" text-anchor="end" fill="#aaaaaa" font-weight="normal">19</text>
<text x="50.0" y="889.5" font-family="Arial,Helvetica,sans-serif" font-size="7" text-anchor="end" fill="#aaaaaa" font-weight="normal">20</text>
<text x="50.0" y="929.5" font-family="Arial,Helvetica,sans-serif" font-size="9" text-anchor="end" fill="#666666" font-weight="normal">21:00</text>
<text x="50.0" y="969.5" font-family="Arial,Helvetica,sans-serif" font-size="7" text-anchor="end" fill="#aaaaaa" font-weight="normal">22</text>
<text x="50.0" y="1009.5" font-family="Arial,Helvetica,sans-serif" font-size="7" text-anchor="end" fill="#aaaaaa" font-weight="normal">23</text>
<text x="50.0" y="1049.5" font-family="Arial,Helvetica,sans-serif" font-size="9" text-anchor="end" fill="#666666" font-weight="normal">24:00</text>
<text x="447.8" y="15.0" font-family="Arial,Helvetica,sans-serif" font-size="12" text-anchor="middle" fill="#1a1a1a" font-weight="bold">NY&amp;E Northern Lights Subdivision — Timetable No. 4 — String Table</text>
<text x="447.8" y="30.0" font-family="Arial,Helvetica,sans-serif" font-size="9" text-anchor="middle" fill="#666666" font-weight="normal">X = Milepost (WP mp 0 → HC mp 208, 1 MP = 12 layout in)  ·  Y = Railroad time  ·  Southward trains superior</text>
<text x="50.0" y="81.0" font-family="Arial,Helvetica,sans-serif" font-size="8" text-anchor="end" fill="#666666" font-weight="normal">RR time</text>
<line x1="144.0" y1="372.7" x2="275.8" y2="378.7" stroke="#1565c0" stroke-width="1.5"/>
<line x1="275.8" y1="378.7" x2="299.0" y2="385.3" stroke="#1565c0" stroke-width="3.5"/>
<circle cx="275.8" cy="378.7" r="3.5" fill="#c62828" stroke="white" stroke-width="0.8"/>
<line x1="299.0" y1="385.3" x2="324.0" y2="386.7" stroke="#1565c0" stroke-width="1.5"/>
<line x1="324.0" y1="386.7" x2="333.0" y2="393.3" stroke="#1565c0" stroke-width="3.5"/>
<line x1="333.0" y1="393.3" x2="394.6" y2="396.7" stroke="#1565c0" stroke-width="1.5"/>
<line x1="394.6" y1="396.7" x2="418.9" y2="403.3" stroke="#1565c0" stroke-width="3.5"/>
<line x1="418.9" y1="403.3" x2="442.9" y2="406.7" stroke="#1565c0" stroke-width="1.5"/>
<line x1="442.9" y1="406.7" x2="464.8" y2="406.7" stroke="#1565c0" stroke-width="1.5" stroke-dasharray="2,2"/>
<line x1="464.8" y1="406.7" x2="630.4" y2="414.0" stroke="#1565c0" stroke-width="1.5"/>
<line x1="630.4" y1="414.0" x2="641.3" y2="420.7" stroke="#1565c0" stroke-width="3.5"/>
<line x1="641.3" y1="420.7" x2="751.5" y2="424.7" stroke="#1565c0" stroke-width="1.5"/>
<text x="193.9" y="379.7" font-family="Arial,Helvetica,sans-serif" font-size="8" text-anchor="start" fill="#1565c0" font-weight="bold">1</text>
<line x1="144.0" y1="716.0" x2="275.8" y2="722.0" stroke="#1565c0" stroke-width="1.5"/>
<line x1="275.8" y1="722.0" x2="299.0" y2="728.7" stroke="#1565c0" stroke-width="3.5"/>
<line x1="299.0" y1="728.7" x2="324.0" y2="730.0" stroke="#1565c0" stroke-width="1.5"/>
<line x1="324.0" y1="730.0" x2="333.0" y2="736.7" stroke="#1565c0" stroke-width="3.5"/>
<line x1="333.0" y1="736.7" x2="394.6" y2="740.0" stroke="#1565c0" stroke-width="1.5"/>
<line x1="394.6" y1="740.0" x2="418.9" y2="746.7" stroke="#1565c0" stroke-width="3.5"/>
<line x1="418.9" y1="746.7" x2="442.9" y2="750.0" stroke="#1565c0" stroke-width="1.5"/>
<line x1="442.9" y1="750.0" x2="464.8" y2="750.0" stroke="#1565c0" stroke-width="1.5" stroke-dasharray="2,2"/>
<line x1="464.8" y1="750.0" x2="630.4" y2="757.3" stroke="#1565c0" stroke-width="1.5"/>
<line x1="630.4" y1="757.3" x2="641.3" y2="764.0" stroke="#1565c0" stroke-width="3.5"/>
<line x1="641.3" y1="764.0" x2="751.5" y2="768.0" stroke="#1565c0" stroke-width="1.5"/>
<text x="193.9" y="723.0" font-family="Arial,Helvetica,sans-serif" font-size="8" text-anchor="start" fill="#1565c0" font-weight="bold">3</text>
<line x1="124.0" y1="246.0" x2="275.8" y2="254.0" stroke="#2e7d32" stroke-width="1.5"/>
<line x1="275.8" y1="254.0" x2="299.0" y2="254.0" stroke="#2e7d32" stroke-width="1.5" stroke-dasharray="3,2"/>
<circle cx="275.8" cy="254.0" r="3.5" fill="#c62828" stroke="white" stroke-width="0.8"/>
<line x1="299.0" y1="254.0" x2="324.0" y2="256.0" stroke="#2e7d32" stroke-width="1.5"/>
<line x1="324.0" y1="256.0" x2="333.0" y2="262.7" stroke="#2e7d32" stroke-width="1.5"/>
<circle cx="324.0" cy="256.0" r="3.5" fill="#c62828" stroke="white" stroke-width="0.8"/>
<line x1="333.0" y1="262.7" x2="394.6" y2="266.7" stroke="#2e7d32" stroke-width="1.5"/>
<line x1="394.6" y1="266.7" x2="418.9" y2="273.3" stroke="#2e7d32" stroke-width="1.5"/>
<line x1="418.9" y1="273.3" x2="442.9" y2="276.7" stroke="#2e7d32" stroke-width="1.5"/>
<line x1="442.9" y1="276.7" x2="464.8" y2="276.7" stroke="#2e7d32" stroke-width="1.5" stroke-dasharray="2,2"/>
<line x1="464.8" y1="276.7" x2="630.4" y2="284.0" stroke="#2e7d32" stroke-width="1.5"/>
<line x1="630.4" y1="284.0" x2="641.3" y2="310.7" stroke="#2e7d32" stroke-width="1.5"/>
<line x1="641.3" y1="310.7" x2="751.5" y2="314.7" stroke="#2e7d32" stroke-width="1.5"/>
<text x="180.6" y="253.7" font-family="Arial,Helvetica,sans-serif" font-size="8" text-anchor="start" fill="#2e7d32" font-weight="bold">11</text>
<line x1="144.0" y1="146.7" x2="275.8" y2="153.3" stroke="#1565c0" stroke-width="1.5"/>
<line x1="275.8" y1="153.3" x2="299.0" y2="160.0" stroke="#1565c0" stroke-width="3.5"/>
<line x1="299.0" y1="160.0" x2="324.0" y2="162.7" stroke="#1565c0" stroke-width="1.5"/>
<line x1="324.0" y1="162.7" x2="333.0" y2="169.3" stroke="#1565c0" stroke-width="3.5"/>
<line x1="333.0" y1="169.3" x2="394.6" y2="174.7" stroke="#1565c0" stroke-width="1.5"/>
<line x1="394.6" y1="174.7" x2="418.9" y2="181.3" stroke="#1565c0" stroke-width="3.5"/>
<line x1="418.9" y1="181.3" x2="442.9" y2="186.7" stroke="#1565c0" stroke-width="1.5"/>
<line x1="442.9" y1="186.7" x2="464.8" y2="186.7" stroke="#1565c0" stroke-width="1.5" stroke-dasharray="2,2"/>
<line x1="464.8" y1="186.7" x2="630.4" y2="198.0" stroke="#1565c0" stroke-width="1.5"/>
<line x1="630.4" y1="198.0" x2="641.3" y2="204.7" stroke="#1565c0" stroke-width="3.5"/>
<line x1="641.3" y1="204.7" x2="751.5" y2="210.7" stroke="#1565c0" stroke-width="1.5"/>
<text x="193.9" y="153.9" font-family="Arial,Helvetica,sans-serif" font-size="8" text-anchor="start" fill="#1565c0" font-weight="bold">21</text>
<line x1="144.0" y1="526.0" x2="275.8" y2="532.7" stroke="#1565c0" stroke-width="1.5"/>
<line x1="275.8" y1="532.7" x2="299.0" y2="539.3" stroke="#1565c0" stroke-width="3.5"/>
<line x1="299.0" y1="539.3" x2="324.0" y2="542.0" stroke="#1565c0" stroke-width="1.5"/>
<line x1="324.0" y1="542.0" x2="333.0" y2="548.7" stroke="#1565c0" stroke-width="3.5"/>
<line x1="333.0" y1="548.7" x2="394.6" y2="554.0" stroke="#1565c0" stroke-width="1.5"/>
<line x1="394.6" y1="554.0" x2="418.9" y2="560.7" stroke="#1565c0" stroke-width="3.5"/>
<line x1="418.9" y1="560.7" x2="442.9" y2="566.0" stroke="#1565c0" stroke-width="1.5"/>
<line x1="442.9" y1="566.0" x2="464.8" y2="566.0" stroke="#1565c0" stroke-width="1.5" stroke-dasharray="2,2"/>
<line x1="464.8" y1="566.0" x2="630.4" y2="577.3" stroke="#1565c0" stroke-width="1.5"/>
<line x1="630.4" y1="577.3" x2="641.3" y2="584.0" stroke="#1565c0" stroke-width="3.5"/>
<line x1="641.3" y1="584.0" x2="751.5" y2="590.0" stroke="#1565c0" stroke-width="1.5"/>
<text x="193.9" y="533.2" font-family="Arial,Helvetica,sans-serif" font-size="8" text-anchor="start" fill="#1565c0" font-weight="bold">23</text>
<line x1="144.0" y1="896.0" x2="275.8" y2="902.7" stroke="#1565c0" stroke-width="1.5"/>
<line x1="275.8" y1="902.7" x2="299.0" y2="909.3" stroke="#1565c0" stroke-width="3.5"/>
<line x1="299.0" y1="909.3" x2="324.0" y2="912.0" stroke="#1565c0" stroke-width="1.5"/>
<line x1="324.0" y1="912.0" x2="333.0" y2="918.7" stroke="#1565c0" stroke-width="3.5"/>
<line x1="333.0" y1="918.7" x2="394.6" y2="924.0" stroke="#1565c0" stroke-width="1.5"/>
<line x1="394.6" y1="924.0" x2="418.9" y2="930.7" stroke="#1565c0" stroke-width="3.5"/>
<line x1="418.9" y1="930.7" x2="442.9" y2="936.0" stroke="#1565c0" stroke-width="1.5"/>
<line x1="442.9" y1="936.0" x2="464.8" y2="936.0" stroke="#1565c0" stroke-width="1.5" stroke-dasharray="2,2"/>
<line x1="464.8" y1="936.0" x2="630.4" y2="947.3" stroke="#1565c0" stroke-width="1.5"/>
<line x1="630.4" y1="947.3" x2="641.3" y2="954.0" stroke="#1565c0" stroke-width="3.5"/>
<line x1="641.3" y1="954.0" x2="751.5" y2="960.0" stroke="#1565c0" stroke-width="1.5"/>
<text x="193.9" y="903.2" font-family="Arial,Helvetica,sans-serif" font-size="8" text-anchor="start" fill="#1565c0" font-weight="bold">25</text>
<line x1="124.0" y1="216.0" x2="275.8" y2="229.3" stroke="#212121" stroke-width="1.5"/>
<line x1="275.8" y1="229.3" x2="299.0" y2="231.3" stroke="#212121" stroke-width="3.5"/>
<line x1="299.0" y1="230.3" x2="307.1" y2="230.3" stroke="#212121" stroke-width="1.5" stroke-dasharray="4,3"/>
<text x="309.1" y="228.3" font-family="Arial,Helvetica,sans-serif" font-size="7" text-anchor="start" fill="#212121" font-weight="normal">QM1</text>
<text x="180.6" y="225.4" font-family="Arial,Helvetica,sans-serif" font-size="8" text-anchor="start" fill="#212121" font-weight="bold">101</text>
<line x1="124.0" y1="96.0" x2="275.8" y2="109.3" stroke="#212121" stroke-width="1.5"/>
<line x1="275.8" y1="109.3" x2="299.0" y2="109.3" stroke="#212121" stroke-width="1.5" stroke-dasharray="3,2"/>
<line x1="299.0" y1="109.3" x2="324.0" y2="118.7" stroke="#212121" stroke-width="1.5"/>
<line x1="324.0" y1="118.7" x2="333.0" y2="118.7" stroke="#212121" stroke-width="1.5" stroke-dasharray="3,2"/>
<line x1="333.0" y1="118.7" x2="394.6" y2="130.7" stroke="#212121" stroke-width="1.5"/>
<line x1="394.6" y1="130.7" x2="418.9" y2="130.7" stroke="#212121" stroke-width="1.5" stroke-dasharray="3,2"/>
<line x1="418.9" y1="130.7" x2="442.9" y2="136.7" stroke="#212121" stroke-width="1.5"/>
<text x="180.6" y="105.4" font-family="Arial,Helvetica,sans-serif" font-size="8" text-anchor="start" fill="#212121" font-weight="bold">111</text>
<line x1="124.0" y1="579.3" x2="275.8" y2="592.7" stroke="#212121" stroke-width="1.5"/>
<line x1="275.8" y1="592.7" x2="299.0" y2="594.7" stroke="#212121" stroke-width="3.5"/>
<line x1="299.0" y1="593.7" x2="307.1" y2="593.7" stroke="#212121" stroke-width="1.5" stroke-dasharray="4,3"/>
<text x="309.1" y="591.7" font-family="Arial,Helvetica,sans-serif" font-size="7" text-anchor="start" fill="#212121" font-weight="normal">QM1</text>
<text x="180.6" y="588.8" font-family="Arial,Helvetica,sans-serif" font-size="8" text-anchor="start" fill="#212121" font-weight="bold">121</text>
<line x1="124.0" y1="552.0" x2="275.8" y2="565.3" stroke="#212121" stroke-width="1.5"/>
<line x1="275.8" y1="565.3" x2="299.0" y2="565.3" stroke="#212121" stroke-width="1.5" stroke-dasharray="3,2"/>
<line x1="299.0" y1="565.3" x2="324.0" y2="574.7" stroke="#212121" stroke-width="1.5"/>
<line x1="324.0" y1="574.7" x2="333.0" y2="574.7" stroke="#212121" stroke-width="1.5" stroke-dasharray="3,2"/>
<line x1="333.0" y1="574.7" x2="394.6" y2="586.7" stroke="#212121" stroke-width="1.5"/>
<line x1="394.6" y1="586.7" x2="418.9" y2="586.7" stroke="#212121" stroke-width="1.5" stroke-dasharray="3,2"/>
<line x1="418.9" y1="586.7" x2="442.9" y2="592.7" stroke="#212121" stroke-width="1.5"/>
<text x="180.6" y="561.4" font-family="Arial,Helvetica,sans-serif" font-size="8" text-anchor="start" fill="#212121" font-weight="bold">131</text>
<line x1="124.0" y1="906.0" x2="275.8" y2="926.0" stroke="#212121" stroke-width="1.5"/>
<line x1="275.8" y1="926.0" x2="299.0" y2="928.0" stroke="#212121" stroke-width="3.5"/>
<line x1="299.0" y1="927.0" x2="307.1" y2="927.0" stroke="#212121" stroke-width="1.5" stroke-dasharray="4,3"/>
<text x="309.1" y="925.0" font-family="Arial,Helvetica,sans-serif" font-size="7" text-anchor="start" fill="#212121" font-weight="normal">QM1</text>
<text x="180.6" y="917.7" font-family="Arial,Helvetica,sans-serif" font-size="8" text-anchor="start" fill="#212121" font-weight="bold">141</text>
<line x1="751.5" y1="446.0" x2="641.3" y2="450.0" stroke="#1565c0" stroke-width="1.5"/>
<line x1="641.3" y1="450.0" x2="630.4" y2="456.7" stroke="#1565c0" stroke-width="3.5"/>
<line x1="630.4" y1="456.7" x2="464.8" y2="464.0" stroke="#1565c0" stroke-width="1.5"/>
<line x1="464.8" y1="464.0" x2="442.9" y2="464.0" stroke="#1565c0" stroke-width="1.5" stroke-dasharray="2,2"/>
<line x1="442.9" y1="464.0" x2="418.9" y2="467.3" stroke="#1565c0" stroke-width="1.5"/>
<line x1="418.9" y1="467.3" x2="394.6" y2="474.0" stroke="#1565c0" stroke-width="3.5"/>
<line x1="394.6" y1="474.0" x2="333.0" y2="477.3" stroke="#1565c0" stroke-width="1.5"/>
<line x1="333.0" y1="477.3" x2="324.0" y2="484.0" stroke="#1565c0" stroke-width="3.5"/>
<line x1="324.0" y1="484.0" x2="299.0" y2="485.3" stroke="#1565c0" stroke-width="1.5"/>
<line x1="299.0" y1="485.3" x2="275.8" y2="492.0" stroke="#1565c0" stroke-width="3.5"/>
<circle cx="299.0" cy="485.3" r="3.5" fill="#c62828" stroke="white" stroke-width="0.8"/>
<line x1="275.8" y1="492.0" x2="144.0" y2="498.0" stroke="#1565c0" stroke-width="1.5"/>
<text x="708.8" y="452.3" font-family="Arial,Helvetica,sans-serif" font-size="8" text-anchor="end" fill="#1565c0" font-weight="bold">2</text>
<line x1="751.5" y1="796.0" x2="641.3" y2="800.0" stroke="#1565c0" stroke-width="1.5"/>
<line x1="641.3" y1="800.0" x2="630.4" y2="806.7" stroke="#1565c0" stroke-width="3.5"/>
<line x1="630.4" y1="806.7" x2="464.8" y2="814.0" stroke="#1565c0" stroke-width="1.5"/>
<line x1="464.8" y1="814.0" x2="442.9" y2="814.0" stroke="#1565c0" stroke-width="1.5" stroke-dasharray="2,2"/>
<line x1="442.9" y1="814.0" x2="418.9" y2="817.3" stroke="#1565c0" stroke-width="1.5"/>
<line x1="418.9" y1="817.3" x2="394.6" y2="824.0" stroke="#1565c0" stroke-width="3.5"/>
<line x1="394.6" y1="824.0" x2="333.0" y2="827.3" stroke="#1565c0" stroke-width="1.5"/>
<line x1="333.0" y1="827.3" x2="324.0" y2="834.0" stroke="#1565c0" stroke-width="3.5"/>
<line x1="324.0" y1="834.0" x2="299.0" y2="835.3" stroke="#1565c0" stroke-width="1.5"/>
<line x1="299.0" y1="835.3" x2="275.8" y2="842.0" stroke="#1565c0" stroke-width="3.5"/>
<line x1="275.8" y1="842.0" x2="144.0" y2="848.0" stroke="#1565c0" stroke-width="1.5"/>
<text x="708.8" y="802.3" font-family="Arial,Helvetica,sans-serif" font-size="8" text-anchor="end" fill="#1565c0" font-weight="bold">4</text>
<line x1="751.5" y1="336.0" x2="641.3" y2="342.0" stroke="#bf360c" stroke-width="1.5"/>
<line x1="641.3" y1="342.0" x2="630.4" y2="348.7" stroke="#bf360c" stroke-width="1.5"/>
<line x1="630.4" y1="348.7" x2="464.8" y2="360.0" stroke="#bf360c" stroke-width="1.5"/>
<line x1="464.8" y1="360.0" x2="442.9" y2="360.0" stroke="#bf360c" stroke-width="1.5" stroke-dasharray="2,2"/>
<line x1="442.9" y1="360.0" x2="418.9" y2="365.3" stroke="#bf360c" stroke-width="1.5"/>
<line x1="418.9" y1="365.3" x2="394.6" y2="372.0" stroke="#bf360c" stroke-width="1.5"/>
<line x1="394.6" y1="372.0" x2="333.0" y2="377.3" stroke="#bf360c" stroke-width="1.5"/>
<line x1="333.0" y1="377.3" x2="324.0" y2="384.0" stroke="#bf360c" stroke-width="1.5"/>
<line x1="324.0" y1="384.0" x2="299.0" y2="386.7" stroke="#bf360c" stroke-width="1.5"/>
<line x1="299.0" y1="386.7" x2="275.8" y2="406.0" stroke="#bf360c" stroke-width="1.5"/>
<circle cx="299.0" cy="386.7" r="3.5" fill="#c62828" stroke="white" stroke-width="0.8"/>
<line x1="275.8" y1="406.0" x2="124.0" y2="412.7" stroke="#bf360c" stroke-width="1.5"/>
<text x="708.8" y="343.0" font-family="Arial,Helvetica,sans-serif" font-size="8" text-anchor="end" fill="#bf360c" font-weight="bold">52</text>
<line x1="751.5" y1="226.7" x2="641.3" y2="232.7" stroke="#1565c0" stroke-width="1.5"/>
<line x1="641.3" y1="232.7" x2="630.4" y2="239.3" stroke="#1565c0" stroke-width="3.5"/>
<line x1="630.4" y1="239.3" x2="464.8" y2="250.7" stroke="#1565c0" stroke-width="1.5"/>
<line x1="464.8" y1="250.7" x2="442.9" y2="250.7" stroke="#1565c0" stroke-width="1.5" stroke-dasharray="2,2"/>
<line x1="442.9" y1="250.7" x2="418.9" y2="256.0" stroke="#1565c0" stroke-width="1.5"/>
<line x1="418.9" y1="256.0" x2="394.6" y2="264.0" stroke="#1565c0" stroke-width="3.5"/>
<line x1="394.6" y1="264.0" x2="333.0" y2="269.3" stroke="#1565c0" stroke-width="1.5"/>
<line x1="333.0" y1="269.3" x2="324.0" y2="276.0" stroke="#1565c0" stroke-width="3.5"/>
<circle cx="333.0" cy="269.3" r="3.5" fill="#c62828" stroke="white" stroke-width="0.8"/>
<line x1="324.0" y1="276.0" x2="299.0" y2="278.7" stroke="#1565c0" stroke-width="1.5"/>
<line x1="299.0" y1="278.7" x2="275.8" y2="285.3" stroke="#1565c0" stroke-width="3.5"/>
<circle cx="299.0" cy="278.7" r="3.5" fill="#c62828" stroke="white" stroke-width="0.8"/>
<line x1="275.8" y1="285.3" x2="144.0" y2="292.0" stroke="#1565c0" stroke-width="1.5"/>
<text x="708.8" y="233.7" font-family="Arial,Helvetica,sans-serif" font-size="8" text-anchor="end" fill="#1565c0" font-weight="bold">22</text>
<line x1="751.5" y1="611.3" x2="641.3" y2="617.3" stroke="#1565c0" stroke-width="1.5"/>
<line x1="641.3" y1="617.3" x2="630.4" y2="624.0" stroke="#1565c0" stroke-width="3.5"/>
<line x1="630.4" y1="624.0" x2="464.8" y2="635.3" stroke="#1565c0" stroke-width="1.5"/>
<line x1="464.8" y1="635.3" x2="442.9" y2="635.3" stroke="#1565c0" stroke-width="1.5" stroke-dasharray="2,2"/>
<line x1="442.9" y1="635.3" x2="418.9" y2="640.7" stroke="#1565c0" stroke-width="1.5"/>
<line x1="418.9" y1="640.7" x2="394.6" y2="647.3" stroke="#1565c0" stroke-width="3.5"/>
<line x1="394.6" y1="647.3" x2="333.0" y2="652.7" stroke="#1565c0" stroke-width="1.5"/>
<line x1="333.0" y1="652.7" x2="324.0" y2="659.3" stroke="#1565c0" stroke-width="3.5"/>
<line x1="324.0" y1="659.3" x2="299.0" y2="662.0" stroke="#1565c0" stroke-width="1.5"/>
<line x1="299.0" y1="662.0" x2="275.8" y2="668.7" stroke="#1565c0" stroke-width="3.5"/>
<circle cx="299.0" cy="662.0" r="3.5" fill="#c62828" stroke="white" stroke-width="0.8"/>
<line x1="275.8" y1="668.7" x2="144.0" y2="675.3" stroke="#1565c0" stroke-width="1.5"/>
<text x="708.8" y="618.3" font-family="Arial,Helvetica,sans-serif" font-size="8" text-anchor="end" fill="#1565c0" font-weight="bold">24</text>
<line x1="751.5" y1="978.0" x2="641.3" y2="984.0" stroke="#1565c0" stroke-width="1.5"/>
<line x1="641.3" y1="984.0" x2="630.4" y2="990.7" stroke="#1565c0" stroke-width="3.5"/>
<line x1="630.4" y1="990.7" x2="464.8" y2="1002.0" stroke="#1565c0" stroke-width="1.5"/>
<line x1="464.8" y1="1002.0" x2="442.9" y2="1002.0" stroke="#1565c0" stroke-width="1.5" stroke-dasharray="2,2"/>
<line x1="442.9" y1="1002.0" x2="418.9" y2="1007.3" stroke="#1565c0" stroke-width="1.5"/>
<line x1="418.9" y1="1007.3" x2="394.6" y2="1014.0" stroke="#1565c0" stroke-width="3.5"/>
<line x1="394.6" y1="1014.0" x2="333.0" y2="1019.3" stroke="#1565c0" stroke-width="1.5"/>
<line x1="333.0" y1="1019.3" x2="324.0" y2="1026.0" stroke="#1565c0" stroke-width="3.5"/>
<line x1="324.0" y1="1026.0" x2="299.0" y2="1028.7" stroke="#1565c0" stroke-width="1.5"/>
<line x1="299.0" y1="1028.7" x2="275.8" y2="1035.3" stroke="#1565c0" stroke-width="3.5"/>
<line x1="275.8" y1="1035.3" x2="144.0" y2="1042.0" stroke="#1565c0" stroke-width="1.5"/>
<text x="708.8" y="985.0" font-family="Arial,Helvetica,sans-serif" font-size="8" text-anchor="end" fill="#1565c0" font-weight="bold">26</text>
<line x1="299.0" y1="291.3" x2="275.8" y2="291.3" stroke="#212121" stroke-width="1.5" stroke-dasharray="3,2"/>
<line x1="275.8" y1="291.3" x2="124.0" y2="308.0" stroke="#212121" stroke-width="1.5"/>
<text x="219.2" y="301.9" font-family="Arial,Helvetica,sans-serif" font-size="8" text-anchor="end" fill="#212121" font-weight="bold">102</text>
<line x1="464.8" y1="208.7" x2="442.9" y2="208.7" stroke="#212121" stroke-width="1.5" stroke-dasharray="3,2"/>
<line x1="442.9" y1="208.7" x2="418.9" y2="223.3" stroke="#212121" stroke-width="1.5"/>
<line x1="418.9" y1="223.3" x2="394.6" y2="223.3" stroke="#212121" stroke-width="1.5" stroke-dasharray="3,2"/>
<line x1="394.6" y1="223.3" x2="333.0" y2="240.7" stroke="#212121" stroke-width="1.5"/>
<line x1="333.0" y1="240.7" x2="324.0" y2="240.7" stroke="#212121" stroke-width="1.5" stroke-dasharray="3,2"/>
<line x1="324.0" y1="240.7" x2="299.0" y2="247.3" stroke="#212121" stroke-width="1.5"/>
<line x1="299.0" y1="247.3" x2="275.8" y2="255.3" stroke="#212121" stroke-width="1.5"/>
<circle cx="299.0" cy="247.3" r="3.5" fill="#c62828" stroke="white" stroke-width="0.8"/>
<line x1="275.8" y1="255.3" x2="124.0" y2="272.0" stroke="#212121" stroke-width="1.5"/>
<text x="428.9" y="218.6" font-family="Arial,Helvetica,sans-serif" font-size="8" text-anchor="end" fill="#212121" font-weight="bold">112</text>
<line x1="299.0" y1="662.0" x2="275.8" y2="662.0" stroke="#212121" stroke-width="1.5" stroke-dasharray="3,2"/>
<circle cx="299.0" cy="662.0" r="3.5" fill="#c62828" stroke="white" stroke-width="0.8"/>
<line x1="275.8" y1="662.0" x2="124.0" y2="678.7" stroke="#212121" stroke-width="1.5"/>
<text x="219.2" y="672.6" font-family="Arial,Helvetica,sans-serif" font-size="8" text-anchor="end" fill="#212121" font-weight="bold">122</text>
<line x1="464.8" y1="636.0" x2="442.9" y2="636.0" stroke="#212121" stroke-width="1.5" stroke-dasharray="3,2"/>
<line x1="442.9" y1="636.0" x2="418.9" y2="650.7" stroke="#212121" stroke-width="1.5"/>
<line x1="418.9" y1="650.7" x2="394.6" y2="650.7" stroke="#212121" stroke-width="1.5" stroke-dasharray="3,2"/>
<line x1="394.6" y1="650.7" x2="333.0" y2="668.0" stroke="#212121" stroke-width="1.5"/>
<line x1="333.0" y1="668.0" x2="324.0" y2="668.0" stroke="#212121" stroke-width="1.5" stroke-dasharray="3,2"/>
<line x1="324.0" y1="668.0" x2="299.0" y2="674.7" stroke="#212121" stroke-width="1.5"/>
<line x1="299.0" y1="674.7" x2="275.8" y2="674.7" stroke="#212121" stroke-width="1.5" stroke-dasharray="3,2"/>
<line x1="275.8" y1="674.7" x2="124.0" y2="691.3" stroke="#212121" stroke-width="1.5"/>
<text x="428.9" y="645.9" font-family="Arial,Helvetica,sans-serif" font-size="8" text-anchor="end" fill="#212121" font-weight="bold">132</text>
<line x1="299.0" y1="971.3" x2="275.8" y2="971.3" stroke="#212121" stroke-width="1.5" stroke-dasharray="3,2"/>
<line x1="275.8" y1="971.3" x2="124.0" y2="988.0" stroke="#212121" stroke-width="1.5"/>
<text x="219.2" y="981.9" font-family="Arial,Helvetica,sans-serif" font-size="8" text-anchor="end" fill="#212121" font-weight="bold">142</text>
<line x1="64.0" y1="239.3" x2="64.0" y2="245.3" stroke="#9e9e9e" stroke-width="2.0"/>
<text x="59.0" y="237.3" font-family="Arial,Helvetica,sans-serif" font-size="7" text-anchor="end" fill="#9e9e9e" font-weight="bold">91</text>
<line x1="64.0" y1="579.3" x2="64.0" y2="585.3" stroke="#9e9e9e" stroke-width="2.0"/>
<text x="59.0" y="577.3" font-family="Arial,Helvetica,sans-serif" font-size="7" text-anchor="end" fill="#9e9e9e" font-weight="bold">93</text>
<line x1="64.0" y1="694.0" x2="64.0" y2="705.3" stroke="#1976d2" stroke-width="3.5"/>
<text x="59.0" y="692.0" font-family="Arial,Helvetica,sans-serif" font-size="7" text-anchor="end" fill="#1976d2" font-weight="bold">5</text>
<line x1="64.0" y1="166.7" x2="64.0" y2="177.3" stroke="#1976d2" stroke-width="3.5"/>
<text x="59.0" y="164.7" font-family="Arial,Helvetica,sans-serif" font-size="7" text-anchor="end" fill="#1976d2" font-weight="bold">7</text>
<line x1="64.0" y1="900.7" x2="64.0" y2="910.7" stroke="#1976d2" stroke-width="3.5"/>
<text x="59.0" y="898.7" font-family="Arial,Helvetica,sans-serif" font-size="7" text-anchor="end" fill="#1976d2" font-weight="bold">23</text>
<line x1="96.0" y1="549.3" x2="96.0" y2="555.3" stroke="#9e9e9e" stroke-width="2.0"/>
<text x="101.0" y="547.3" font-family="Arial,Helvetica,sans-serif" font-size="7" text-anchor="start" fill="#9e9e9e" font-weight="bold">92</text>
<line x1="96.0" y1="862.7" x2="96.0" y2="868.7" stroke="#9e9e9e" stroke-width="2.0"/>
<text x="101.0" y="860.7" font-family="Arial,Helvetica,sans-serif" font-size="7" text-anchor="start" fill="#9e9e9e" font-weight="bold">94</text>
<line x1="96.0" y1="552.7" x2="96.0" y2="562.7" stroke="#1976d2" stroke-width="3.5"/>
<text x="101.0" y="550.7" font-family="Arial,Helvetica,sans-serif" font-size="7" text-anchor="start" fill="#1976d2" font-weight="bold">12</text>
<line x1="96.0" y1="988.7" x2="96.0" y2="998.7" stroke="#1976d2" stroke-width="3.5"/>
<text x="101.0" y="986.7" font-family="Arial,Helvetica,sans-serif" font-size="7" text-anchor="start" fill="#1976d2" font-weight="bold">6</text>
<line x1="96.0" y1="784.7" x2="96.0" y2="794.7" stroke="#1976d2" stroke-width="3.5"/>
<text x="101.0" y="782.7" font-family="Arial,Helvetica,sans-serif" font-size="7" text-anchor="start" fill="#1976d2" font-weight="bold">32</text>
<text x="761.0" y="96.0" font-family="Arial,Helvetica,sans-serif" font-size="10" text-anchor="start" fill="#1a1a1a" font-weight="bold">Legend</text>
<line x1="761.0" y1="109.0" x2="783.0" y2="109.0" stroke="#1565c0" stroke-width="2.0"/>
<text x="787.0" y="112.0" font-family="Arial,Helvetica,sans-serif" font-size="9" text-anchor="start" fill="#666666" font-weight="normal">Passenger</text>
<line x1="761.0" y1="127.0" x2="783.0" y2="127.0" stroke="#bf360c" stroke-width="2.0"/>
<text x="787.0" y="130.0" font-family="Arial,Helvetica,sans-serif" font-size="9" text-anchor="start" fill="#666666" font-weight="normal">Freight</text>
<line x1="761.0" y1="145.0" x2="783.0" y2="145.0" stroke="#2e7d32" stroke-width="2.0"/>
<text x="787.0" y="148.0" font-family="Arial,Helvetica,sans-serif" font-size="9" text-anchor="start" fill="#666666" font-weight="normal">Express Freight</text>
<line x1="761.0" y1="163.0" x2="783.0" y2="163.0" stroke="#212121" stroke-width="2.0"/>
<text x="787.0" y="166.0" font-family="Arial,Helvetica,sans-serif" font-size="9" text-anchor="start" fill="#666666" font-weight="normal">Coal / Coke</text>
<text x="761.0" y="182.0" font-family="Arial,Helvetica,sans-serif" font-size="9" text-anchor="start" fill="#1a1a1a" font-weight="bold">Dwell:</text>
<line x1="761.0" y1="200.0" x2="783.0" y2="200.0" stroke="#555555" stroke-width="3.5"/>
<text x="787.0" y="203.0" font-family="Arial,Helvetica,sans-serif" font-size="9" text-anchor="start" fill="#666666" font-weight="normal">Active work</text>
<line x1="761.0" y1="217.0" x2="783.0" y2="217.0" stroke="#555555" stroke-width="1.5"/>
<text x="787.0" y="220.0" font-family="Arial,Helvetica,sans-serif" font-size="9" text-anchor="start" fill="#666666" font-weight="normal">Schedule wait</text>
<line x1="761.0" y1="234.0" x2="783.0" y2="234.0" stroke="#555555" stroke-width="1.5" stroke-dasharray="2,2"/>
<text x="787.0" y="237.0" font-family="Arial,Helvetica,sans-serif" font-size="9" text-anchor="start" fill="#666666" font-weight="normal">Switchback move</text>
<text x="761.0" y="252.0" font-family="Arial,Helvetica,sans-serif" font-size="9" text-anchor="start" fill="#1a1a1a" font-weight="bold">Marks:</text>
<line x1="761.0" y1="270.0" x2="783.0" y2="270.0" stroke="#555555" stroke-width="1.5" stroke-dasharray="4,3"/>
<text x="787.0" y="273.0" font-family="Arial,Helvetica,sans-serif" font-size="9" text-anchor="start" fill="#666666" font-weight="normal">Mine spur work</text>
<circle cx="772.0" cy="287.0" r="3.5" fill="#c62828" stroke="white" stroke-width="0.8"/>
<text x="787.0" y="290.0" font-family="Arial,Helvetica,sans-serif" font-size="9" text-anchor="start" fill="#666666" font-weight="normal">Meet point</text>
<text x="761.0" y="305.0" font-family="Arial,Helvetica,sans-serif" font-size="9" text-anchor="start" fill="#1a1a1a" font-weight="bold">C&amp;O strip:</text>
<text x="761.0" y="327.0" font-family="Arial,Helvetica,sans-serif" font-size="8" text-anchor="start" fill="#666666" font-weight="normal">W col = westbound</text>
<text x="761.0" y="341.0" font-family="Arial,Helvetica,sans-serif" font-size="8" text-anchor="start" fill="#666666" font-weight="normal">E col = eastbound</text>
<text x="761.0" y="353.0" font-family="Arial,Helvetica,sans-serif" font-size="9" text-anchor="start" fill="#1a1a1a" font-weight="bold">Station types:</text>
<polygon points="772.0,367 768.0,360 776.0,360" fill="#212121" opacity="0.35"/>
<text x="787.0" y="367.0" font-family="Arial,Helvetica,sans-serif" font-size="9" text-anchor="start" fill="#666666" font-weight="normal">▲ Switchback</text>
<line x1="765.0" y1="385.0" x2="779.0" y2="385.0" stroke="#bbddbb" stroke-width="1.2" stroke-dasharray="3,6"/>
<text x="787.0" y="388.0" font-family="Arial,Helvetica,sans-serif" font-size="9" text-anchor="start" fill="#666666" font-weight="normal">Long siding exit</text>
</svg>